<?xml version="1.0" encoding="UTF-8"?><svg id="Layer_2" xmlns="http://www.w3.org/2000/svg" viewBox="0 0 311.82 252.31"><defs><style>.cls-1{fill:#53439b;}</style></defs><g id="Layer_1-2"><path class="cls-1" d="M55.86,71.04c19.59,0,35.52-15.94,35.52-35.52S75.44,0,55.86,0,20.34,15.93,20.34,35.52s15.94,35.52,35.52,35.52M55.86,15.7c10.93,0,19.82,8.89,19.82,19.82s-8.89,19.82-19.82,19.82-19.82-8.89-19.82-19.82,8.89-19.82,19.82-19.82"/><path class="cls-1" d="M55.42,79.52C24.94,79.01,0,104.76,0,135.24v92.08c0,1.24,1,2.24,2.24,2.24h11.09c1.24,0,2.24,1,2.24,2.24v11.13c0,1.24,1,2.24,2.24,2.24h73.29c1.24,0,2.24-1,2.24-2.24v-11.13c0-1.24,1-2.24,2.24-2.24h11.13c1.24,0,2.24-1,2.24-2.24v-93.32c0-29.73-23.94-53.98-53.55-54.48M93.28,227.24c0,1.24-1,2.24-2.24,2.24H17.94c-1.24,0-2.24-1-2.24-2.24v-93.23c0-21.17,17.05-38.43,38.13-38.78,21.69-.36,39.44,18.12,39.44,39.81v92.21Z"/><path class="cls-1" d="M246.79,71.04c19.59,0,35.52-15.94,35.52-35.52S266.38,0,246.79,0s-35.52,15.93-35.52,35.52,15.94,35.52,35.52,35.52M246.79,15.7c10.93,0,19.82,8.89,19.82,19.82s-8.89,19.82-19.82,19.82-19.82-8.89-19.82-19.82,8.89-19.82,19.82-19.82"/><path class="cls-1" d="M246.36,79.52c-30.48-.52-55.42,25.23-55.42,55.72l-13.24,92.08c0,1.24,1,2.24,2.24,2.24h11.09c1.24,0,2.24,1,2.24,2.24v11.13c0,1.24,1,2.24,2.24,2.24h98.44c1.24,0,2.24-1,2.24-2.24v-11.13c0-1.24,1-2.24,2.24-2.24h11.13c1.24,0,2.24-1,2.24-2.24l-11.91-93.32c0-29.73-23.94-53.98-53.55-54.48M296.12,227.24c0,1.24-1,2.24-2.24,2.24h-98.24c-1.24,0-2.24-1-2.24-2.24l13.24-93.23c0-21.17,17.05-38.43,38.13-38.78,21.69-.36,39.44,18.12,39.44,39.81l11.91,92.21Z"/><polygon class="cls-1" points="147.81 252.31 137.22 252.25 138.86 17.8 149.45 17.86 147.81 252.31"/></g></svg>