<?xml version="1.0" encoding="UTF-8"?><svg id="Layer_2" xmlns="http://www.w3.org/2000/svg" viewBox="0 0 277.51 320"><defs><style>.cls-1{fill:#53439b;}</style></defs><g id="Layer_1-2"><path class="cls-1" d="M127.4,63.79h31.85v31.85h-31.85v-31.85Z"/><path class="cls-1" d="M95.55,127.49h31.85v31.85h-31.85v-31.85Z"/><path class="cls-1" d="M63.7,95.64h31.85v31.85h-31.85v-31.85Z"/><path class="cls-1" d="M63.7,127.49h31.85v31.85h-31.85v-31.85Z"/><path class="cls-1" d="M63.7,159.34h31.85v31.85h-31.85v-31.85Z"/><path class="cls-1" d="M127.4,31.94h31.85v31.85h-31.85v-31.85Z"/><path class="cls-1" d="M63.7,223.04h31.85v31.85h-31.85v-31.85Z"/><path class="cls-1" d="M63.7,286.74h31.85v31.85h-31.85v-31.85Z"/><path class="cls-1" d="M63.7,254.89h31.85v31.85h-31.85v-31.85Z"/><path class="cls-1" d="M0,63.79h31.85v31.85H0v-31.85Z"/><path class="cls-1" d="M127.4,95.64h31.85v31.85h-31.85v-31.85Z"/><path class="cls-1" d="M0,95.64h31.85v31.85H0v-31.85Z"/><path class="cls-1" d="M31.85,127.49h31.85v31.85h-31.85v-31.85Z"/><path class="cls-1" d="M0,31.94h31.85v31.85H0v-31.85Z"/><path class="cls-1" d="M31.85.09h31.85v31.85h-31.85V.09Z"/><path class="cls-1" d="M63.7,0h31.85v31.85h-31.85V0Z"/><path class="cls-1" d="M63.7,63.79h31.85v31.85h-31.85v-31.85Z"/><path class="cls-1" d="M95.55.09h31.85v31.85h-31.85V.09Z"/><path class="cls-1" d="M63.7,191.19h31.85v31.85h-31.85v-31.85Z"/><path class="cls-1" d="M238.35,162.6h19.11v19.11h-19.11v-19.11Z"/><path class="cls-1" d="M219.24,200.82h19.11v19.11h-19.11v-19.11Z"/><path class="cls-1" d="M200.13,181.71h19.11v19.11h-19.11v-19.11Z"/><path class="cls-1" d="M200.13,200.82h19.11v19.11h-19.11v-19.11Z"/><path class="cls-1" d="M200.13,219.93h19.11v19.11h-19.11v-19.11Z"/><path class="cls-1" d="M238.35,143.48h19.11v19.11h-19.11v-19.11Z"/><path class="cls-1" d="M200.13,258.15h19.11v19.11h-19.11v-19.11Z"/><path class="cls-1" d="M200.13,296.37h19.11v19.11h-19.11v-19.11Z"/><path class="cls-1" d="M200.13,277.26h19.11v19.11h-19.11v-19.11Z"/><path class="cls-1" d="M161.91,162.6h19.11v19.11h-19.11v-19.11Z"/><path class="cls-1" d="M238.35,181.71h19.11v19.11h-19.11v-19.11Z"/><path class="cls-1" d="M161.91,181.71h19.11v19.11h-19.11v-19.11Z"/><path class="cls-1" d="M181.02,200.82h19.11v19.11h-19.11v-19.11Z"/><path class="cls-1" d="M161.91,143.48h19.11v19.11h-19.11v-19.11Z"/><path class="cls-1" d="M181.02,124.37h19.11v19.11h-19.11v-19.11Z"/><path class="cls-1" d="M200.13,124.32h19.11v19.11h-19.11v-19.11Z"/><path class="cls-1" d="M200.13,162.6h19.11v19.11h-19.11v-19.11Z"/><path class="cls-1" d="M219.24,124.37h19.11v19.11h-19.11v-19.11Z"/><path class="cls-1" d="M200.13,239.04h19.11v19.11h-19.11v-19.11Z"/><rect class="cls-1" y="291.84" width="277.51" height="28.16"/></g></svg>