<?xml version="1.0" encoding="UTF-8"?><svg id="Layer_2" xmlns="http://www.w3.org/2000/svg" viewBox="0 0 165.25 280"><defs><style>.cls-1{fill:#53439b;}</style></defs><g id="Layer_1-2"><path class="cls-1" d="M144.79,44v-11.78c0-1.22-.16-2.35-.42-3.38v-.03c-1.09-3.89-4.09-6.53-8.24-7.18-.68-.1-1.35-.16-2.06-.16H10.72c-6.44,0-10.72,4.31-10.72,10.75v80.43c0,36.05,26.55,65.88,61.15,71.06,3.48.55,7.08.8,10.72.8s7.24-.26,10.72-.8c34.6-5.18,61.24-35.02,62.21-71.06v-46.12h-22.5v46.12c0,27.9-22.53,50.43-50.43,50.43s-50.43-22.53-50.43-50.43V44h123.36Z"/><path class="cls-1" d="M71.86,238.17c-6.44,0-10.72-4.29-10.72-10.72v-52.56c0-6.44,4.29-10.72,10.72-10.72s10.72,4.29,10.72,10.72v52.56c0,5.36-4.29,10.72-10.72,10.72Z"/><path class="cls-1" d="M126.58,216.73H17.15c-6.44,0-10.72,4.28-10.72,10.72v41.84c0,6.44,4.28,10.72,10.72,10.72h109.42c6.44,0,10.72-4.28,10.72-10.72v-41.84c0-6.44-4.28-10.72-10.72-10.72ZM115.83,258.53H27.87v-20.37h87.96v20.37Z"/><path class="cls-1" d="M144.79,30.36v13.65h-22.5v-22.53h13.65c.35,0,.68.03,1,.06h.06c3.99.48,7.14,3.6,7.69,7.56.06.42.1.84.1,1.25Z"/><rect class="cls-1" x="142.74" width="22.52" height="22.52" rx="2.96" ry="2.96"/><path class="cls-1" d="M144.71,29.12l-8.78-7.64c.34.06,3.2.48,5.24-1.55,1.08-1.06,1.43-2.31,1.55-2.91,2.05,1.8,4.1,3.59,6.15,5.39-.58.24-1.94.89-2.97,2.38-1.28,1.84-1.23,3.74-1.19,4.32Z"/></g></svg>