<?xml version="1.0" encoding="UTF-8"?><svg id="Layer_2" xmlns="http://www.w3.org/2000/svg" viewBox="0 0 317.9 238.43"><defs><style>.cls-1{fill:#53439b;}</style></defs><g id="Layer_1-2"><path class="cls-1" d="M0,45.7h0c0-3.29,2.67-5.96,5.96-5.96h27.82c3.29,0,5.96,2.67,5.96,5.96v27.82h0c0,3.29-2.67,5.96-5.96,5.96H5.96c-3.29,0-5.96-2.67-5.96-5.96v-27.82Z"/><path class="cls-1" d="M0,59.61h39.74v39.74H0v-39.74Z"/><path class="cls-1" d="M0,85.44h0c0-3.29,2.67-5.96,5.96-5.96h27.82c3.29,0,5.96,2.67,5.96,5.96v27.82h0c0,3.29-2.67,5.96-5.96,5.96H5.96c-3.29,0-5.96-2.67-5.96-5.96v-27.82Z"/><path class="cls-1" d="M0,99.34h39.74v39.74H0v-39.74Z"/><path class="cls-1" d="M0,125.17h0c0-3.29,2.67-5.96,5.96-5.96h27.82c3.29,0,5.96,2.67,5.96,5.96v27.82h0c0,3.29-2.67,5.96-5.96,5.96H5.96c-3.29,0-5.96-2.67-5.96-5.96v-27.82Z"/><path class="cls-1" d="M0,139.08h39.74v39.74H0v-39.74Z"/><path class="cls-1" d="M0,164.91h0c0-3.29,2.67-5.96,5.96-5.96h27.82c3.29,0,5.96,2.67,5.96,5.96v27.82h0c0,3.29-2.67,5.96-5.96,5.96H5.96c-3.29,0-5.96-2.67-5.96-5.96v-27.82Z"/><path class="cls-1" d="M33.78,198.69h0c3.29,0,5.96,2.67,5.96,5.96l5.96-5.96h0c-3.29,0-5.96-2.67-5.96-5.96l-5.96,5.96Z"/><path class="cls-1" d="M39.74,204.65h0c0-3.29,2.67-5.96,5.96-5.96h27.82c3.29,0,5.96,2.67,5.96,5.96v27.82h0c0,3.29-2.67,5.96-5.96,5.96h-27.82c-3.29,0-5.96-2.67-5.96-5.96v-27.82Z"/><path class="cls-1" d="M59.61,198.69h39.74v39.74h-39.74v-39.74Z"/><path class="cls-1" d="M79.48,204.65h0c0-3.29,2.67-5.96,5.96-5.96h27.82c3.29,0,5.96,2.67,5.96,5.96v27.82h0c0,3.29-2.67,5.96-5.96,5.96h-27.82c-3.29,0-5.96-2.67-5.96-5.96v-27.82Z"/><path class="cls-1" d="M99.34,198.69h39.74v39.74h-39.74v-39.74Z"/><path class="cls-1" d="M119.21,204.65h0c0-3.29,2.67-5.96,5.96-5.96h27.82c3.29,0,5.96,2.67,5.96,5.96v27.82h0c0,3.29-2.67,5.96-5.96,5.96h-27.82c-3.29,0-5.96-2.67-5.96-5.96v-27.82Z"/><path class="cls-1" d="M139.08,198.69h39.74v39.74h-39.74v-39.74Z"/><path class="cls-1" d="M79.48,125.17h0c0-3.29,2.67-5.96,5.96-5.96h27.82c3.29,0,5.96,2.67,5.96,5.96v27.82h0c0,3.29-2.67,5.96-5.96,5.96h-27.82c-3.29,0-5.96-2.67-5.96-5.96v-27.82Z"/><path class="cls-1" d="M79.48,85.44h0c0-3.29,2.67-5.96,5.96-5.96h27.82c3.29,0,5.96,2.67,5.96,5.96v27.82h0c0,3.29-2.67,5.96-5.96,5.96h-27.82c-3.29,0-5.96-2.67-5.96-5.96v-27.82Z"/><path class="cls-1" d="M79.48,99.34h39.74v39.74h-39.74v-39.74Z"/><path class="cls-1" d="M79.48,45.7h0c0-3.29,2.67-5.96,5.96-5.96h27.82c3.29,0,5.96,2.67,5.96,5.96v27.82h0c0,3.29-2.67,5.96-5.96,5.96h-27.82c-3.29,0-5.96-2.67-5.96-5.96v-27.82Z"/><path class="cls-1" d="M79.48,59.61h39.74v39.74h-39.74v-39.74Z"/><path class="cls-1" d="M79.48,5.96h0c0-3.29,2.67-5.96,5.96-5.96h27.82c3.29,0,5.96,2.67,5.96,5.96v27.82h0c0,3.29-2.67,5.96-5.96,5.96h-27.82c-3.29,0-5.96-2.67-5.96-5.96V5.96Z"/><path class="cls-1" d="M79.48,19.87h39.74v39.74h-39.74V19.87Z"/><path class="cls-1" d="M158.95,125.17h0c0-3.29,2.67-5.96,5.96-5.96h27.82c3.29,0,5.96,2.67,5.96,5.96v27.82h0c0,3.29-2.67,5.96-5.96,5.96h-27.82c-3.29,0-5.96-2.67-5.96-5.96v-27.82Z"/><path class="cls-1" d="M158.95,85.44h0c0-3.29,2.67-5.96,5.96-5.96h27.82c3.29,0,5.96,2.67,5.96,5.96v27.82h0c0,3.29-2.67,5.96-5.96,5.96h-27.82c-3.29,0-5.96-2.67-5.96-5.96v-27.82Z"/><path class="cls-1" d="M158.95,99.34h39.74v39.74h-39.74v-39.74Z"/><path class="cls-1" d="M238.43,125.17h0c0-3.29,2.67-5.96,5.96-5.96h27.82c3.29,0,5.96,2.67,5.96,5.96v27.82h0c0,3.29-2.67,5.96-5.96,5.96h-27.82c-3.29,0-5.96-2.67-5.96-5.96v-27.82Z"/><path class="cls-1" d="M158.95,204.65h0c0-3.29,2.67-5.96,5.96-5.96h27.82c3.29,0,5.96,2.67,5.96,5.96v27.82h0c0,3.29-2.67,5.96-5.96,5.96h-27.82c-3.29,0-5.96-2.67-5.96-5.96v-27.82Z"/><path class="cls-1" d="M178.82,198.69h39.74v39.74h-39.74v-39.74Z"/><path class="cls-1" d="M198.69,204.65h0c0-3.29,2.67-5.96,5.96-5.96h27.82c3.29,0,5.96,2.67,5.96,5.96v27.82h0c0,3.29-2.67,5.96-5.96,5.96h-27.82c-3.29,0-5.96-2.67-5.96-5.96v-27.82Z"/><path class="cls-1" d="M218.56,198.69h39.74v39.74h-39.74v-39.74Z"/><path class="cls-1" d="M238.43,204.65h0c0-3.29,2.67-5.96,5.96-5.96h27.82c3.29,0,5.96,2.67,5.96,5.96v27.82h0c0,3.29-2.67,5.96-5.96,5.96h-27.82c-3.29,0-5.96-2.67-5.96-5.96v-27.82Z"/><path class="cls-1" d="M258.3,198.69h39.74v39.74h-39.74v-39.74Z"/><path class="cls-1" d="M278.16,204.65h0c0-3.29,2.67-5.96,5.96-5.96h27.82c3.29,0,5.96,2.67,5.96,5.96v27.82h0c0,3.29-2.67,5.96-5.96,5.96h-27.82c-3.29,0-5.96-2.67-5.96-5.96v-27.82Z"/><path class="cls-1" d="M0,5.96h0C0,2.67,2.67,0,5.96,0h27.82c3.29,0,5.96,2.67,5.96,5.96v27.82h0c0,3.29-2.67,5.96-5.96,5.96H5.96c-3.29,0-5.96-2.67-5.96-5.96V5.96Z"/><path class="cls-1" d="M0,19.87h39.74v39.74H0V19.87Z"/></g></svg>