<?xml version="1.0" encoding="UTF-8"?><svg id="Layer_2" xmlns="http://www.w3.org/2000/svg" viewBox="0 0 256 256.03"><defs><style>.cls-1{fill:#53439b;}</style></defs><g id="Layer_1-2"><path class="cls-1" d="M188.35,128.02h-43.85c-2.03,0-3.68,1.65-3.68,3.68v18.24c0,2.03,1.64,3.68,3.68,3.68h43.85c2.03,0,3.68-1.64,3.68-3.68v-18.24c0-2.03-1.65-3.68-3.68-3.68"/><path class="cls-1" d="M111.54,128.02h-43.85c-2.03,0-3.68,1.65-3.68,3.68v18.24c0,2.03,1.64,3.68,3.68,3.68h43.85c2.03,0,3.68-1.64,3.68-3.68v-18.24c0-2.03-1.65-3.68-3.68-3.68"/><path class="cls-1" d="M188.35,179.22h-43.85c-2.03,0-3.68,1.65-3.68,3.68v18.25c0,2.03,1.64,3.68,3.68,3.68h43.85c2.03,0,3.68-1.65,3.68-3.68v-18.25c0-2.03-1.65-3.68-3.68-3.68"/><path class="cls-1" d="M115.22,201.14v-18.25c0-2.03-1.65-3.68-3.68-3.68h-43.85c-2.03,0-3.68,1.65-3.68,3.68v18.25c0,2.03,1.64,3.68,3.68,3.68h43.85c2.03,0,3.68-1.65,3.68-3.68"/><path class="cls-1" d="M252.32,51.12h-18.16c-2.03,0-3.68-1.65-3.68-3.68v-18.16c0-2.03-1.64-3.68-3.68-3.68h-22.02V3.68c0-2.03-1.65-3.68-3.68-3.68h-18.25c-2.03,0-3.68,1.65-3.68,3.68v21.92h-102.41V3.68c0-2.03-1.64-3.68-3.68-3.68h-18.24c-2.03,0-3.68,1.65-3.68,3.68v21.92h-21.92c-2.03,0-3.68,1.65-3.68,3.68v18.2c0,2.03-1.65,3.68-3.68,3.68H3.68c-2.03,0-3.68,1.64-3.68,3.68v172.04c0,2.03,1.65,3.68,3.68,3.68h18.2c2.03,0,3.68,1.65,3.68,3.68v18.12c0,2.03,1.65,3.68,3.68,3.68h197.57c2.03,0,3.68-1.65,3.68-3.68v-18.11c0-2.03,1.65-3.68,3.68-3.68h18.16c2.03,0,3.68-1.65,3.68-3.68V54.8c0-2.03-1.65-3.68-3.68-3.68M25.6,76.81v-21.92c0-2.03,1.65-3.68,3.68-3.68h197.43c2.03,0,3.68,1.64,3.68,3.68v21.92H25.6ZM230.4,102.41v124.33c0,2.03-1.65,3.68-3.68,3.68H29.28c-2.03,0-3.68-1.64-3.68-3.68v-124.33h204.79Z"/></g></svg>