<?xml version="1.0" encoding="UTF-8"?><svg id="Layer_2" xmlns="http://www.w3.org/2000/svg" viewBox="0 0 256 239.85"><defs><style>.cls-1{fill:#53439b;}</style></defs><g id="Layer_1-2"><path class="cls-1" d="M252.32,25.7h-18.31c-2.04,0-3.68-1.65-3.68-3.68V3.68c0-2.03-1.65-3.68-3.68-3.68H29.38c-2.03,0-3.68,1.65-3.68,3.68v18.33c0,2.04-1.65,3.68-3.68,3.68H3.68c-2.03,0-3.68,1.65-3.68,3.68v120.4c0,2.04,1.65,3.68,3.68,3.68h18.33c2.03,0,3.68,1.65,3.68,3.68v18.33c0,2.03,1.65,3.68,3.68,3.68h34.14v57c0,2.54,2.51,4.32,4.91,3.48l38.82-13.66c.79-.28,1.65-.28,2.45,0l38.83,13.66c2.39.84,4.91-.94,4.91-3.48v-57h73.21c2.03,0,3.68-1.65,3.68-3.68v-18.33c0-2.03,1.65-3.68,3.68-3.68h18.31c2.03,0,3.68-1.65,3.68-3.68V29.38c0-2.03-1.65-3.68-3.68-3.68M108.47,141.41c-17.68,0-32.06-14.38-32.06-32.06s14.38-32.06,32.06-32.06,32.06,14.38,32.06,32.06-14.38,32.06-32.06,32.06M109.69,198.64c-.79-.28-1.65-.28-2.45,0l-17.95,6.31v-41.1c6.01,2.12,12.44,3.33,19.17,3.33s13.16-1.21,19.17-3.33v41.1l-17.95-6.31ZM230.21,149.69c0,2.03-1.65,3.68-3.68,3.68h-73.11v-7.7c8.05-9.94,12.89-22.57,12.89-36.33,0-31.9-25.95-57.85-57.85-57.85s-57.85,25.95-57.85,57.85c0,13.75,4.84,26.39,12.89,36.33v7.7H29.47c-2.03,0-3.68-1.65-3.68-3.68V29.47c0-2.03,1.65-3.68,3.68-3.68h197.06c2.03,0,3.68,1.65,3.68,3.68v120.23Z"/></g></svg>