<?xml version="1.0" encoding="UTF-8"?><svg id="Layer_2" xmlns="http://www.w3.org/2000/svg" viewBox="0 0 310.66 207.49"><defs><style>.cls-1{fill:#53439b;}</style></defs><g id="Layer_1-2"><path class="cls-1" d="M285.35,181.41V29.68c0-2.06-1.67-3.73-3.73-3.73h-18.54c-2.06,0-3.73-1.67-3.73-3.73V3.73c0-2.06-1.67-3.73-3.73-3.73H54.66c-2.06,0-3.73,1.67-3.73,3.73v18.58c0,2.06-1.67,3.73-3.73,3.73h-18.59c-2.06,0-3.73,1.67-3.73,3.73v151.65H3.73c-2.06,0-3.73,1.67-3.73,3.73v18.63c0,2.06,1.67,3.73,3.73,3.73h303.21c2.06,0,3.73-1.67,3.73-3.73v-18.63c0-2.06-1.67-3.73-3.73-3.73h-21.58ZM54.7,26.08h200.85c2.06,0,3.73,1.67,3.73,3.73v151.6h-44.04c-1.98-31.5-28.16-56.53-60.15-56.53s-58.17,25.04-60.15,56.53h-43.97V29.8c0-2.06,1.67-3.73,3.73-3.73M189.12,181.41h-68.07c1.9-17.1,16.43-30.45,34.04-30.45s32.13,13.35,34.04,30.45"/><path class="cls-1" d="M155.08,116.41c21.29,0,38.6-17.32,38.6-38.6s-17.32-38.6-38.6-38.6-38.6,17.32-38.6,38.6,17.32,38.6,38.6,38.6M155.08,65.28c6.91,0,12.53,5.62,12.53,12.53s-5.62,12.53-12.53,12.53-12.53-5.62-12.53-12.53,5.62-12.53,12.53-12.53"/></g></svg>