<?xml version="1.0" encoding="UTF-8"?><svg id="Layer_2" xmlns="http://www.w3.org/2000/svg" viewBox="0 0 320 188.82"><defs><style>.cls-1{fill:#53439b;}</style></defs><g id="Layer_1-2"><path class="cls-1" d="M316.17,26.54h-18.77c-2.12,0-3.83-1.72-3.83-3.83V3.83c0-2.12-1.72-3.83-3.83-3.83H30.27c-2.12,0-3.83,1.72-3.83,3.83v18.87c0,2.12-1.72,3.83-3.83,3.83H0v131.92c0,2.12,1.72,3.83,3.83,3.83h18.76c2.12,0,3.83,1.72,3.83,3.83v18.87c0,2.12,1.72,3.83,3.83,3.83h259.46c2.12,0,3.83-1.72,3.83-3.83v-18.87c0-2.12,1.72-3.83,3.83-3.83h18.77c2.12,0,3.83-1.72,3.83-3.83V30.37c0-2.12-1.72-3.83-3.83-3.83M293.16,30.67v127.48c0,2.12-1.72,3.83-3.83,3.83H30.67c-2.12,0-3.83-1.72-3.83-3.83V30.67c0-2.12,1.72-3.83,3.83-3.83h258.66c2.12,0,3.83,1.72,3.83,3.83"/><path class="cls-1" d="M113.89,94.41c0,4.29-3.49,7.75-7.75,7.75h-12.92c-4.29,0-7.75-3.46-7.75-7.75s3.46-7.75,7.75-7.75h12.92c4.26,0,7.75,3.49,7.75,7.75Z"/><path class="cls-1" d="M183.15,70.96c-5.92-6.1-14.1-9.84-23.15-9.84s-17.2,3.77-23.12,9.84c-5.86,6.02-9.48,14.34-9.48,23.46s3.62,17.44,9.48,23.46c5.92,6.1,14.1,9.87,23.12,9.87s17.23-3.77,23.15-9.87c5.89-6.02,9.51-14.31,9.51-23.46s-3.64-17.44-9.51-23.46ZM172.06,107.1c-3.07,3.18-7.34,5.14-12.06,5.14s-8.96-1.96-12.04-5.14c-3.15-3.2-5.09-7.7-5.09-12.68s1.94-9.45,5.09-12.68c3.07-3.18,7.34-5.11,12.04-5.11s8.99,1.96,12.06,5.11c3.13,3.23,5.09,7.72,5.09,12.68s-1.94,9.48-5.09,12.68Z"/><path class="cls-1" d="M113.89,94.41c0,4.29-3.49,7.75-7.75,7.75h-12.92c-4.29,0-7.75-3.46-7.75-7.75s3.46-7.75,7.75-7.75h12.92c4.26,0,7.75,3.49,7.75,7.75Z"/><path class="cls-1" d="M183.15,70.96c-5.92-6.1-14.1-9.84-23.15-9.84s-17.2,3.77-23.12,9.84c-5.86,6.02-9.48,14.34-9.48,23.46s3.62,17.44,9.48,23.46c5.92,6.1,14.1,9.87,23.12,9.87s17.23-3.77,23.15-9.87c5.89-6.02,9.51-14.31,9.51-23.46s-3.64-17.44-9.51-23.46ZM172.06,107.1c-3.07,3.18-7.34,5.14-12.06,5.14s-8.96-1.96-12.04-5.14c-3.15-3.2-5.09-7.7-5.09-12.68s1.94-9.45,5.09-12.68c3.07-3.18,7.34-5.11,12.04-5.11s8.99,1.96,12.06,5.11c3.13,3.23,5.09,7.72,5.09,12.68s-1.94,9.48-5.09,12.68Z"/><path class="cls-1" d="M234.55,94.41c0,4.29-3.46,7.75-7.75,7.75h-12.92c-4.29,0-7.75-3.46-7.75-7.75s3.46-7.75,7.75-7.75h12.92c4.29,0,7.75,3.46,7.75,7.75Z"/><path class="cls-1" d="M255.47,62.15c-3.67,0-6.97-1.47-9.38-3.87l-.03-.03c-2.38-2.4-3.87-5.71-3.87-9.38,0-4.26-3.46-7.75-7.75-7.75H85.55c-4.29,0-7.75,3.49-7.75,7.75,0,3.67-1.47,6.97-3.87,9.38l-.03.03c-2.4,2.38-5.71,3.87-9.38,3.87-4.29,0-7.75,3.49-7.75,7.75v49.03c0,4.26,3.46,7.75,7.75,7.75,3.67,0,6.97,1.47,9.38,3.87l.03.03c2.38,2.38,3.87,5.71,3.87,9.38,0,4.26,3.46,7.75,7.75,7.75h148.89c4.29,0,7.75-3.49,7.75-7.75,0-3.67,1.5-7,3.87-9.38l.03-.03c2.4-2.4,5.71-3.87,9.38-3.87,4.29,0,7.75-3.49,7.75-7.75v-49.03c0-4.26-3.46-7.75-7.75-7.75ZM247.72,112.24c-4.78,1.34-9.09,3.93-12.55,7.39l-.03.03c-3.44,3.44-6.02,7.75-7.36,12.53H92.24c-1.37-4.78-3.95-9.09-7.41-12.55l-.03-.03c-3.44-3.44-7.72-6.02-12.53-7.36v-35.65c4.8-1.37,9.09-3.95,12.55-7.39l.05-.05c3.41-3.44,5.99-7.72,7.34-12.53h135.56c1.34,4.8,3.93,9.12,7.39,12.55l.03.05c3.46,3.41,7.75,5.99,12.53,7.34v35.67Z"/><path class="cls-1" d="M113.89,94.41c0,4.29-3.49,7.75-7.75,7.75h-12.92c-4.29,0-7.75-3.46-7.75-7.75s3.46-7.75,7.75-7.75h12.92c4.26,0,7.75,3.49,7.75,7.75Z"/><path class="cls-1" d="M183.15,70.96c-5.92-6.1-14.1-9.84-23.15-9.84s-17.2,3.77-23.12,9.84c-5.86,6.02-9.48,14.34-9.48,23.46s3.62,17.44,9.48,23.46c5.92,6.1,14.1,9.87,23.12,9.87s17.23-3.77,23.15-9.87c5.89-6.02,9.51-14.31,9.51-23.46s-3.64-17.44-9.51-23.46ZM172.06,107.1c-3.07,3.18-7.34,5.14-12.06,5.14s-8.96-1.96-12.04-5.14c-3.15-3.2-5.09-7.7-5.09-12.68s1.94-9.45,5.09-12.68c3.07-3.18,7.34-5.11,12.04-5.11s8.99,1.96,12.06,5.11c3.13,3.23,5.09,7.72,5.09,12.68s-1.94,9.48-5.09,12.68Z"/><path class="cls-1" d="M234.55,94.41c0,4.29-3.46,7.75-7.75,7.75h-12.92c-4.29,0-7.75-3.46-7.75-7.75s3.46-7.75,7.75-7.75h12.92c4.29,0,7.75,3.46,7.75,7.75Z"/><path class="cls-1" d="M113.89,94.41c0,4.29-3.49,7.75-7.75,7.75h-12.92c-4.29,0-7.75-3.46-7.75-7.75s3.46-7.75,7.75-7.75h12.92c4.26,0,7.75,3.49,7.75,7.75Z"/><path class="cls-1" d="M183.15,70.96c-5.92-6.1-14.1-9.84-23.15-9.84s-17.2,3.77-23.12,9.84c-5.86,6.02-9.48,14.34-9.48,23.46s3.62,17.44,9.48,23.46c5.92,6.1,14.1,9.87,23.12,9.87s17.23-3.77,23.15-9.87c5.89-6.02,9.51-14.31,9.51-23.46s-3.64-17.44-9.51-23.46ZM172.06,107.1c-3.07,3.18-7.34,5.14-12.06,5.14s-8.96-1.96-12.04-5.14c-3.15-3.2-5.09-7.7-5.09-12.68s1.94-9.45,5.09-12.68c3.07-3.18,7.34-5.11,12.04-5.11s8.99,1.96,12.06,5.11c3.13,3.23,5.09,7.72,5.09,12.68s-1.94,9.48-5.09,12.68Z"/><path class="cls-1" d="M234.55,94.41c0,4.29-3.46,7.75-7.75,7.75h-12.92c-4.29,0-7.75-3.46-7.75-7.75s3.46-7.75,7.75-7.75h12.92c4.29,0,7.75,3.46,7.75,7.75Z"/><path class="cls-1" d="M255.47,62.15c-3.67,0-6.97-1.47-9.38-3.87l-.03-.03c-2.38-2.4-3.87-5.71-3.87-9.38,0-4.26-3.46-7.75-7.75-7.75H85.55c-4.29,0-7.75,3.49-7.75,7.75,0,3.67-1.47,6.97-3.87,9.38l-.03.03c-2.4,2.38-5.71,3.87-9.38,3.87-4.29,0-7.75,3.49-7.75,7.75v49.03c0,4.26,3.46,7.75,7.75,7.75,3.67,0,6.97,1.47,9.38,3.87l.03.03c2.38,2.38,3.87,5.71,3.87,9.38,0,4.26,3.46,7.75,7.75,7.75h148.89c4.29,0,7.75-3.49,7.75-7.75,0-3.67,1.5-7,3.87-9.38l.03-.03c2.4-2.4,5.71-3.87,9.38-3.87,4.29,0,7.75-3.49,7.75-7.75v-49.03c0-4.26-3.46-7.75-7.75-7.75ZM247.72,112.24c-4.78,1.34-9.09,3.93-12.55,7.39l-.03.03c-3.44,3.44-6.02,7.75-7.36,12.53H92.24c-1.37-4.78-3.95-9.09-7.41-12.55l-.03-.03c-3.44-3.44-7.72-6.02-12.53-7.36v-35.65c4.8-1.37,9.09-3.95,12.55-7.39l.05-.05c3.41-3.44,5.99-7.72,7.34-12.53h135.56c1.34,4.8,3.93,9.12,7.39,12.55l.03.05c3.46,3.41,7.75,5.99,12.53,7.34v35.67Z"/><path class="cls-1" d="M234.55,94.41c0,4.29-3.46,7.75-7.75,7.75h-12.92c-4.29,0-7.75-3.46-7.75-7.75s3.46-7.75,7.75-7.75h12.92c4.29,0,7.75,3.46,7.75,7.75Z"/></g></svg>