<?xml version="1.0" encoding="UTF-8"?><svg id="Layer_2" xmlns="http://www.w3.org/2000/svg" viewBox="0 0 256 233.82"><defs><style>.cls-1{fill:#53439b;}</style></defs><g id="Layer_1-2"><path class="cls-1" d="M230.08,17.35h-12.27c-1.38,0-2.5-1.12-2.5-2.5V2.51c0-1.38-1.12-2.51-2.51-2.51H43.2c-1.38,0-2.5,1.12-2.5,2.5v12.33c0,1.38-1.12,2.51-2.51,2.51h-14.77v119.76c0,1.38,1.12,2.51,2.51,2.51h12.26c1.38,0,2.51,1.12,2.51,2.51v12.33c0,1.38,1.12,2.51,2.51,2.51h169.59c1.38,0,2.51-1.12,2.51-2.51v-12.33c0-1.38,1.12-2.51,2.51-2.51h12.27c1.38,0,2.5-1.12,2.5-2.5V19.85c0-1.38-1.12-2.51-2.5-2.51M215.04,20.05v116.86c0,1.38-1.12,2.51-2.51,2.51H43.47c-1.38,0-2.51-1.12-2.51-2.51V20.05c0-1.38,1.12-2.51,2.51-2.51h169.07c1.38,0,2.51,1.12,2.51,2.51"/><rect class="cls-1" x="92.56" y="180.89" width="70.88" height="17.48" transform="translate(317.63 61.63) rotate(90)"/><rect class="cls-1" x="92.56" y="216.33" width="70.88" height="17.48" transform="translate(256 450.15) rotate(180)"/><rect class="cls-1" y=".06" width="256" height="17.48" rx="2.13" ry="2.13" transform="translate(256 17.6) rotate(180)"/><rect class="cls-1" x="228.92" y="13.04" width="3.67" height="8.68"/></g></svg>