<?xml version="1.0" encoding="UTF-8"?><svg id="Layer_2" xmlns="http://www.w3.org/2000/svg" viewBox="0 0 332.29 168.19"><defs><style>.cls-1{fill:#53439b;}</style></defs><g id="Layer_1-2"><rect class="cls-1" x=".37" y="144.68" width="289.02" height="23.5"/><path class="cls-1" d="M140.34,159.5C62.96,159.5,0,96.54,0,19.16h19.19c0,66.81,54.35,121.15,121.16,121.15s121.15-54.35,121.15-121.15h19.19c0,77.39-62.96,140.34-140.34,140.34Z"/><rect class="cls-1" x="20.28" width="240.84" height="19.19"/><path class="cls-1" d="M252.88,125.78c-6.45,0-12.96-.8-19.4-2.45l4.76-18.59c24.19,6.2,49.85-3.52,63.86-24.19l9.83-14.51c2.04-3,.94-5.81.37-6.88-.57-1.07-2.28-3.55-5.9-3.55h-40.23v-19.19h40.23c9.6,0,18.36,5.27,22.86,13.75,4.5,8.48,3.95,18.69-1.44,26.64l-9.83,14.51c-14.81,21.85-39.47,34.46-65.11,34.46Z"/></g></svg>