<?xml version="1.0" encoding="UTF-8"?><svg id="Layer_2" xmlns="http://www.w3.org/2000/svg" viewBox="0 0 203.73 309.91"><defs><style>.cls-1{fill:#53439b;}</style></defs><g id="Layer_1-2"><path class="cls-1" d="M104.43,132.81c36.62,0,66.4-29.79,66.4-66.41S141.04,0,104.43,0,38.02,29.79,38.02,66.4s29.79,66.41,66.4,66.41M104.43,29.35c20.43,0,37.05,16.62,37.05,37.05s-16.62,37.05-37.05,37.05-37.05-16.62-37.05-37.05,16.62-37.05,37.05-37.05"/><path class="cls-1" d="M103.61,148.67C46.63,147.7,0,195.84,0,252.83v23.69c0,2.31,1.87,4.19,4.19,4.19h20.74c2.32,0,4.19,1.88,4.19,4.19v20.81c0,2.31,1.87,4.19,4.19,4.19h137.01c2.32,0,4.19-1.88,4.19-4.19v-20.81c0-2.31,1.88-4.19,4.19-4.19h20.82c2.31,0,4.19-1.88,4.19-4.19v-26c0-55.59-44.75-100.92-100.12-101.85M174.38,276.36c0,2.31-1.88,4.19-4.19,4.19H33.55c-2.32,0-4.19-1.88-4.19-4.19v-25.84c0-39.58,31.87-71.85,71.28-72.5,40.55-.68,73.74,33.87,73.74,74.42v23.92Z"/></g></svg>