<?xml version="1.0" encoding="UTF-8"?><svg id="Layer_2" xmlns="http://www.w3.org/2000/svg" viewBox="0 0 243.83 317.53"><defs><style>.cls-1,.cls-2{fill:#53439b;}.cls-2{fill-rule:evenodd;}</style></defs><g id="Layer_1-2"><path class="cls-2" d="M220.68,170c33.16-41,30.7-101.28-7.45-139.43C175.11-7.55,114.83-10.02,73.83,23.15L56.51,5.83c-4.34-4.34-11.35-4.34-15.69,0-54.43,54.43-54.43,142.72,0,197.16,22.77,22.77,51.44,36.02,81.1,39.73v42.41h22.15v-41.39c34.12-1.12,67.88-14.7,93.93-40.72,4.31-4.34,4.31-11.35,0-15.69l-17.32-17.32ZM109.67,43.22c2.23-6.49,5.95-13.43,9.09-18.44,15.27-3.95,31.47-3.43,46.54,1.53-1.61,9.32-3.19,21.48-3.74,33.29-.34,7.35-.29,14.88.52,21.63.49,4.36,1.4,9.04,3.09,13.32-4.47.62-10.08.7-15.53.47v-11.92c0-4.52-2.78-8.6-6.99-10.28-4.29-1.71-11.37-4.86-18.41-8.62-3.69-1.97-16.52-7.14-16.46-12.23.05-2.05.62-5.01,1.9-8.75ZM81.26,46.26c1.92-1.92,3.92-3.74,5.97-5.43-.93,3.51-1.58,7.22-1.61,10.88-.08,5.32,1.17,11.95,6.28,17.09,5.66,5.66,14.31,10.91,21.87,14.96,4.78,2.55,9.56,4.83,13.69,6.67v14.85c0,5.66,4.23,10.39,9.87,11.01,8.62.96,21.68,1.64,31.84.08,4.57-.7,11.19-2.18,15.76-6.49,2.73-2.57,4.93-6.31,5.04-11.04.1-4.34-1.56-8.02-3.4-10.8-.75-1.09-1.84-4-2.49-9.43-.6-5.09-.68-11.3-.39-17.97.39-8.18,1.32-16.62,2.41-23.97,4.03,2.78,7.89,5.97,11.48,9.58,16.08,16.05,24.1,37.08,24.1,58.14s-8.02,42.1-24.1,58.17c-8.21,8.21-17.71,14.31-27.86,18.33-4.18-4.86-9.17-10.44-13.87-15.4-21.63-22.67-43.94-8.36-66.45,4.21-2.8-2.18-5.53-4.54-8.13-7.14-32.12-32.12-32.12-84.22,0-116.31ZM145.06,186.47c-10.91.73-21.92-.68-32.36-4.23,6.39-3.43,12.47-6.67,18.88-9.45,3.38,2.93,8.47,8.18,13.48,13.69ZM56.51,187.32C13.37,144.16,10.88,75.76,49.03,29.72l9.12,9.12c-33.16,41-30.7,101.28,7.43,139.4,36.9,36.9,98.45,40.59,139.43,7.43l9.12,9.11c-46.04,38.17-114.47,35.68-157.61-7.45Z"/><rect class="cls-1" x="142.34" y="282.74" width="18.17" height="18.17" rx="2.39" ry="2.39" transform="translate(443.24 140.4) rotate(90)"/><path class="cls-1" d="M137.01,284.33l6.16-7.09c-.04.27-.38,2.58,1.25,4.23.86.87,1.86,1.15,2.34,1.25-1.45,1.65-2.9,3.31-4.35,4.96-.19-.47-.72-1.56-1.92-2.4-1.48-1.03-3.01-.99-3.49-.96Z"/><path class="cls-1" d="M137.01,299.35l6.16,7.09c-.04-.27-.38-2.58,1.25-4.23.86-.87,1.86-1.15,2.34-1.25-1.45-1.65-2.9-3.31-4.35-4.96-.19.47-.72,1.56-1.92,2.4-1.48,1.03-3.01.99-3.49.96Z"/><rect class="cls-1" x="82.83" y="299.37" width="60.29" height="18.17"/></g></svg>