<?xml version="1.0" encoding="UTF-8"?><svg id="Layer_2" xmlns="http://www.w3.org/2000/svg" viewBox="0 0 256 256"><defs><style>.cls-1{fill:#53439b;}</style></defs><g id="Layer_1-2"><path class="cls-1" d="M128,0C57.42,0,0,57.42,0,128s57.42,128,128,128,128-57.42,128-128S198.58,0,128,0M128,230.26c-56.38,0-102.26-45.87-102.26-102.26S71.61,25.74,128,25.74s102.26,45.87,102.26,102.26-45.87,102.26-102.26,102.26"/><path class="cls-1" d="M162.61,127.9h-18.14c-2.03,0-3.68-1.65-3.68-3.68V44.99c0-2.03-1.65-3.68-3.68-3.68h-18.24c-2.03,0-3.68,1.65-3.68,3.68v79.33c0,2.03,1.65,3.68,3.68,3.68h18.14c2.03,0,3.68,1.65,3.68,3.68v18.14c0,2.03,1.65,3.68,3.68,3.68h18.18c2.03,0,3.68,1.64,3.68,3.68v18.17c0,2.03,1.64,3.68,3.68,3.68h18.23c2.03,0,3.68-1.65,3.68-3.68v-18.24c0-2.03-1.64-3.68-3.68-3.68h-18.18c-2.03,0-3.68-1.64-3.68-3.68v-18.17c0-2.03-1.65-3.68-3.68-3.68"/></g></svg>