<?xml version="1.0" encoding="UTF-8"?><svg id="Layer_2" xmlns="http://www.w3.org/2000/svg" viewBox="0 0 317.48 188.13"><defs><style>.cls-1{fill:#53439b;}</style></defs><g id="Layer_1-2"><path class="cls-1" d="M309.24,74.15l-20.79-20.79h0C253.93,19.18,207.31,0,158.74,0S63.55,19.18,29.03,53.35l-20.79,20.8c-10.99,11-10.99,28.82,0,39.83l20.79,20.79c34.52,34.19,81.14,53.35,129.71,53.35s95.19-19.16,129.71-53.35l20.79-20.79c10.99-11.01,10.99-28.83,0-39.83ZM158.74,142.18c-19.39,0-36.87-11.69-44.29-29.6-7.41-17.91-3.32-38.52,10.39-52.23,13.71-13.71,34.32-17.8,52.23-10.39,17.91,7.42,29.6,24.91,29.6,44.29,0,12.71-5.05,24.91-14.04,33.9-8.99,8.99-21.19,14.04-33.9,14.04ZM27.97,94.24l20.79-20.79h.01c17.11-17.06,38-29.86,60.98-37.37-17.11,14.4-26.98,35.62-26.98,57.98s9.87,43.59,26.98,57.98c-22.81-7.45-43.57-20.13-60.63-37.01l-21.15-20.79ZM268.34,115.03h.01c-17.03,17.02-37.78,29.81-60.63,37.37,17.11-14.4,26.98-35.62,26.98-57.98s-9.87-43.59-26.98-57.98c22.81,7.45,43.57,20.13,60.63,37.01l21.15,20.79-21.16,20.79Z"/></g></svg>