<?xml version="1.0" encoding="UTF-8"?><svg id="Layer_2" xmlns="http://www.w3.org/2000/svg" viewBox="0 0 318.93 287.95"><defs><style>.cls-1{fill:#53439b;}</style></defs><g id="Layer_1-2"><path class="cls-1" d="M201.13,202.88h16.81c1.34,0,2.68-.06,4.01-.17l-20.82.17ZM260.55,20.71h-14.79c-1.66,0-3-1.34-3-3V2.98c0-1.66-1.34-2.98-2.98-2.98H79.11c-1.66,0-2.98,1.32-2.98,2.98v14.72c0,1.66-1.34,2.98-3,2.98h-14.77c-1.64,0-2.98,1.34-2.98,3v117.04c2.17-6.82,5.9-13.19,10.85-18.41l2.9-3.09s2.28-2.41,7.07-5.05V23.8c0-1.64,1.34-2.98,2.98-2.98h160.56c1.64,0,2.98,1.34,2.98,2.98v89.57c.06.04.11.06.17.11,2.88,1.87,5.16,3.9,6.92,5.73,0,.02.02.02.02.04l2.9,3.07c4.92,5.22,8.67,11.59,10.82,18.41V23.69c0-1.64-1.34-2.98-3-2.98Z"/><path class="cls-1" d="M318.78,85.95h-20.94c-.08,0-.13.06-.13.13v31.75c-.02,13.12-7.91,24.72-20.05,29.57l-10.53,4.2c-.09.04-.15,0-.17-.06l-3.41-10.8c-2.15-6.82-5.9-13.19-10.82-18.41l-2.9-3.07s-.02-.02-.02-.04c-1.77-1.83-4.05-3.86-6.92-5.73-.06-.04-.11-.06-.17-.11-6.97-4.5-13.87-5.75-18-6.16h-118.89c-14,0-23.74,3.66-29.64,6.97-4.79,2.64-7.07,5.05-7.07,5.05l-2.9,3.09c-4.94,5.22-8.67,11.59-10.85,18.41l-3.41,10.8c-.02.06-.11.11-.19.06l-10.5-4.2c-12.14-4.86-20.03-16.45-20.05-29.53v-31.79c0-.06-.06-.13-.15-.13H.13c-.09,0-.13.06-.13.13v31.77c-.09,27.93,21.69,51.28,49.56,53.16l5.94.4s.09.02.11.06l2.73,5.33c7.59,14.91,22.2,24.59,38.69,25.93,1.28.11,2.6.15,3.9.15h47.77c.09,0,.15.06.15.13v63.58c0,.06-.06.13-.15.13h-42.25c-.09,0-.13.06-.13.13v20.99c0,.06.04.13.13.13h106.02c.09,0,.15-.06.15-.13v-20.99c0-.06-.06-.13-.15-.13h-42.25c-.09,0-.13-.06-.13-.13v-63.58c0-.06.04-.13.13-.13h30.92l20.82-.17c16.51-1.34,31.09-11.02,38.65-25.91l2.71-5.33s.06-.06.11-.06l5.97-.4c27.87-1.87,49.64-25.23,49.56-53.14v-31.79c0-.06-.06-.13-.15-.13ZM217.94,181.66h-116.06c-13.91,0-26.14-10.29-27.4-24.14-1.43-15.77,10.99-29.06,26.5-29.06h116.08c13.91,0,26.14,10.31,27.38,24.16,1.38,15.77-11.04,29.04-26.51,29.04Z"/><path class="cls-1" d="M201.13,202.88h16.81c1.34,0,2.68-.06,4.01-.17l-20.82.17Z"/></g></svg>