<?xml version="1.0" encoding="UTF-8"?><svg id="Layer_2" xmlns="http://www.w3.org/2000/svg" viewBox="0 0 256 199.12"><defs><style>.cls-1{fill:#53439b;}</style></defs><g id="Layer_1-2"><path class="cls-1" d="M255.92,46.76h-16.82c-.28,0-.54-.08-.76-.23.39.48.59,1.1.59,1.84v17.25c-25.46,18.53-65.69,31.11-110.93,31.11s-85.49-12.58-110.93-31.11v-17.25c0-.74.2-1.37.6-1.85-.22.15-.48.25-.77.25H.08c-.06.54-.08,1.06-.08,1.6v130.84c0,10.88,9.03,19.92,19.91,19.92h216.17c10.88,0,19.92-9.04,19.92-19.92V48.36c0-.54-.02-1.06-.08-1.6ZM116.61,113.6c3.77.15,7.56.19,11.39.19s7.62-.03,11.37-.19v8.72h-22.76v-8.72ZM238.93,179.2c0,1.73-1.13,2.85-2.85,2.85H19.91c-1.73,0-2.84-1.13-2.84-2.85v-93.14c22.27,13.5,50.72,22.73,82.48,26.22v12.88c0,7.73,6.5,14.23,14.23,14.23h28.44c7.73,0,14.23-6.5,14.23-14.23v-12.88c31.77-3.49,60.23-12.72,82.49-26.22v93.14ZM236.08,45.52c.74,0,1.36.2,1.84.57-.14-.22-.22-.46-.22-.74v-16.82c-.54-.06-1.08-.08-1.62-.08h-51.2v-8.53c0-10.88-9.03-19.92-19.91-19.92h-73.96c-10.88,0-19.91,9.04-19.91,19.92v8.53H19.91c-.54,0-1.08.02-1.62.08v16.82c0,.28-.08.56-.22.77.48-.4,1.1-.6,1.84-.6h216.17ZM88.17,19.92c0-1.73,1.13-2.85,2.84-2.85h73.96c1.73,0,2.84,1.13,2.84,2.85v8.53h-79.64v-8.53Z"/></g></svg>