<?xml version="1.0" encoding="UTF-8"?><svg id="Layer_2" xmlns="http://www.w3.org/2000/svg" viewBox="0 0 246.7 215.86"><defs><style>.cls-1{fill:#53439b;}</style></defs><g id="Layer_1-2"><path class="cls-1" d="M30.84,4.63h0c0-2.55,2.07-4.63,4.63-4.63h21.59c2.55,0,4.63,2.07,4.63,4.63v21.59h0c0,2.55-2.07,4.63-4.63,4.63h-21.59c-2.55,0-4.63-2.07-4.63-4.63V4.63Z"/><path class="cls-1" d="M46.26,0h30.84v30.84h-30.84V0Z"/><path class="cls-1" d="M35.46,30.84h0c-2.55,0-4.63,2.07-4.63,4.63l-4.63-4.63h0c2.55,0,4.63-2.07,4.63-4.63l4.63,4.63Z"/><path class="cls-1" d="M61.68,4.63h0c0-2.55,2.07-4.63,4.63-4.63h21.59c2.55,0,4.63,2.07,4.63,4.63v21.59h0c0,2.55-2.07,4.63-4.63,4.63h-21.59c-2.55,0-4.63-2.07-4.63-4.63V4.63Z"/><path class="cls-1" d="M77.09,0h30.84v30.84h-30.84V0Z"/><path class="cls-1" d="M92.51,4.63h0c0-2.55,2.07-4.63,4.63-4.63h21.59c2.55,0,4.63,2.07,4.63,4.63v21.59h0c0,2.55-2.07,4.63-4.63,4.63h-21.59c-2.55,0-4.63-2.07-4.63-4.63V4.63Z"/><path class="cls-1" d="M107.93,0h30.84v30.84h-30.84V0Z"/><path class="cls-1" d="M123.35,4.63h0c0-2.55,2.07-4.63,4.63-4.63h21.59c2.55,0,4.63,2.07,4.63,4.63v21.59h0c0,2.55-2.07,4.63-4.63,4.63h-21.59c-2.55,0-4.63-2.07-4.63-4.63V4.63Z"/><path class="cls-1" d="M149.56,30.84h0c2.55,0,4.63,2.07,4.63,4.63l4.63-4.63h0c-2.55,0-4.63-2.07-4.63-4.63l-4.63,4.63Z"/><path class="cls-1" d="M154.19,35.46h0c0-2.55,2.07-4.63,4.63-4.63h21.59c2.55,0,4.63,2.07,4.63,4.63v21.59h0c0,2.55-2.07,4.63-4.63,4.63h-21.59c-2.55,0-4.63-2.07-4.63-4.63v-21.59Z"/><path class="cls-1" d="M154.19,46.26h30.84v30.84h-30.84v-30.84Z"/><path class="cls-1" d="M0,35.46h0c0-2.55,2.07-4.63,4.63-4.63h21.59c2.55,0,4.63,2.07,4.63,4.63v21.59h0c0,2.55-2.07,4.63-4.63,4.63H4.63c-2.55,0-4.63-2.07-4.63-4.63v-21.59Z"/><path class="cls-1" d="M0,46.26h30.84v30.84H0v-30.84Z"/><path class="cls-1" d="M0,66.3h0c0-2.55,2.07-4.63,4.63-4.63h21.59c2.55,0,4.63,2.07,4.63,4.63v21.59h0c0,2.55-2.07,4.63-4.63,4.63H4.63c-2.55,0-4.63-2.07-4.63-4.63v-21.59Z"/><path class="cls-1" d="M0,77.09h30.84v30.84H0v-30.84Z"/><path class="cls-1" d="M0,97.14h0c0-2.55,2.07-4.63,4.63-4.63h21.59c2.55,0,4.63,2.07,4.63,4.63v21.59h0c0,2.55-2.07,4.63-4.63,4.63H4.63c-2.55,0-4.63-2.07-4.63-4.63v-21.59Z"/><path class="cls-1" d="M0,107.93h30.84v30.84H0v-30.84Z"/><path class="cls-1" d="M0,127.98h0c0-2.55,2.07-4.63,4.63-4.63h21.59c2.55,0,4.63,2.07,4.63,4.63v21.59h0c0,2.55-2.07,4.63-4.63,4.63H4.63c-2.55,0-4.63-2.07-4.63-4.63v-21.59Z"/><path class="cls-1" d="M0,138.77h30.84v30.84H0v-30.84Z"/><path class="cls-1" d="M0,158.81h0c0-2.55,2.07-4.63,4.63-4.63h21.59c2.55,0,4.63,2.07,4.63,4.63v21.59h0c0,2.55-2.07,4.63-4.63,4.63H4.63c-2.55,0-4.63-2.07-4.63-4.63v-21.59Z"/><path class="cls-1" d="M26.21,185.03h0c2.55,0,4.63,2.07,4.63,4.63l4.63-4.63h0c-2.55,0-4.63-2.07-4.63-4.63l-4.63,4.63Z"/><path class="cls-1" d="M30.84,189.65h0c0-2.55,2.07-4.63,4.63-4.63h21.59c2.55,0,4.63,2.07,4.63,4.63v21.59h0c0,2.55-2.07,4.63-4.63,4.63h-21.59c-2.55,0-4.63-2.07-4.63-4.63v-21.59Z"/><path class="cls-1" d="M46.26,185.03h30.84v30.84h-30.84v-30.84Z"/><path class="cls-1" d="M61.68,189.65h0c0-2.55,2.07-4.63,4.63-4.63h21.59c2.55,0,4.63,2.07,4.63,4.63v21.59h0c0,2.55-2.07,4.63-4.63,4.63h-21.59c-2.55,0-4.63-2.07-4.63-4.63v-21.59Z"/><path class="cls-1" d="M77.09,185.03h30.84v30.84h-30.84v-30.84Z"/><path class="cls-1" d="M92.51,189.65h0c0-2.55,2.07-4.63,4.63-4.63h21.59c2.55,0,4.63,2.07,4.63,4.63v21.59h0c0,2.55-2.07,4.63-4.63,4.63h-21.59c-2.55,0-4.63-2.07-4.63-4.63v-21.59Z"/><path class="cls-1" d="M107.93,185.03h30.84v30.84h-30.84v-30.84Z"/><path class="cls-1" d="M123.35,189.65h0c0-2.55,2.07-4.63,4.63-4.63h21.59c2.55,0,4.63,2.07,4.63,4.63v21.59h0c0,2.55-2.07,4.63-4.63,4.63h-21.59c-2.55,0-4.63-2.07-4.63-4.63v-21.59Z"/><path class="cls-1" d="M154.19,66.3h0c0-2.55,2.07-4.63,4.63-4.63h21.59c2.55,0,4.63,2.07,4.63,4.63v21.59h0c0,2.55-2.07,4.63-4.63,4.63h-21.59c-2.55,0-4.63-2.07-4.63-4.63v-21.59Z"/><path class="cls-1" d="M154.19,77.09h30.84v30.84h-30.84v-30.84Z"/><path class="cls-1" d="M154.19,97.14h0c0-2.55,2.07-4.63,4.63-4.63h21.59c2.55,0,4.63,2.07,4.63,4.63v21.59h0c0,2.55-2.07,4.63-4.63,4.63h-21.59c-2.55,0-4.63-2.07-4.63-4.63v-21.59Z"/><path class="cls-1" d="M154.19,107.93h30.84v30.84h-30.84v-30.84Z"/><path class="cls-1" d="M154.19,158.81h0c0-2.55,2.07-4.63,4.63-4.63h21.59c2.55,0,4.63,2.07,4.63,4.63v21.59h0c0,2.55-2.07,4.63-4.63,4.63h-21.59c-2.55,0-4.63-2.07-4.63-4.63v-21.59Z"/><path class="cls-1" d="M180.4,185.03h0c2.55,0,4.63,2.07,4.63,4.63l4.63-4.63h0c-2.55,0-4.63-2.07-4.63-4.63l-4.63,4.63Z"/><path class="cls-1" d="M158.81,185.03h0c-2.55,0-4.63,2.07-4.63,4.63l-4.63-4.63h0c2.55,0,4.63-2.07,4.63-4.63l4.63,4.63Z"/><path class="cls-1" d="M61.68,66.3h0c0-2.55,2.07-4.63,4.63-4.63h21.59c2.55,0,4.63,2.07,4.63,4.63v21.59h0c0,2.55-2.07,4.63-4.63,4.63h-21.59c-2.55,0-4.63-2.07-4.63-4.63v-21.59Z"/><path class="cls-1" d="M77.09,61.68h30.84v30.84h-30.84v-30.84Z"/><path class="cls-1" d="M92.51,66.3h0c0-2.55,2.07-4.63,4.63-4.63h21.59c2.55,0,4.63,2.07,4.63,4.63v21.59h0c0,2.55-2.07,4.63-4.63,4.63h-21.59c-2.55,0-4.63-2.07-4.63-4.63v-21.59Z"/><path class="cls-1" d="M61.68,127.98h0c0-2.55,2.07-4.63,4.63-4.63h21.59c2.55,0,4.63,2.07,4.63,4.63v21.59h0c0,2.55-2.07,4.63-4.63,4.63h-21.59c-2.55,0-4.63-2.07-4.63-4.63v-21.59Z"/><path class="cls-1" d="M77.09,123.35h30.84v30.84h-30.84v-30.84Z"/><path class="cls-1" d="M92.51,127.98h0c0-2.55,2.07-4.63,4.63-4.63h21.59c2.55,0,4.63,2.07,4.63,4.63v21.59h0c0,2.55-2.07,4.63-4.63,4.63h-21.59c-2.55,0-4.63-2.07-4.63-4.63v-21.59Z"/><path class="cls-1" d="M215.86,189.65h0c0-2.55,2.07-4.63,4.63-4.63h21.59c2.55,0,4.63,2.07,4.63,4.63v21.59h0c0,2.55-2.07,4.63-4.63,4.63h-21.59c-2.55,0-4.63-2.07-4.63-4.63v-21.59Z"/><path class="cls-1" d="M215.86,158.81h0c0-2.55,2.07-4.63,4.63-4.63h21.59c2.55,0,4.63,2.07,4.63,4.63v21.59h0c0,2.55-2.07,4.63-4.63,4.63h-21.59c-2.55,0-4.63-2.07-4.63-4.63v-21.59Z"/><path class="cls-1" d="M215.86,169.61h30.84v30.84h-30.84v-30.84Z"/><path class="cls-1" d="M220.49,185.03h0c-2.55,0-4.63,2.07-4.63,4.63l-4.63-4.63h0c2.55,0,4.63-2.07,4.63-4.63l4.63,4.63Z"/><path class="cls-1" d="M215.86,127.98h0c0-2.55,2.07-4.63,4.63-4.63h21.59c2.55,0,4.63,2.07,4.63,4.63v21.59h0c0,2.55-2.07,4.63-4.63,4.63h-21.59c-2.55,0-4.63-2.07-4.63-4.63v-21.59Z"/><path class="cls-1" d="M215.86,138.77h30.84v30.84h-30.84v-30.84Z"/><path class="cls-1" d="M154.19,127.98h0c0-2.55,2.07-4.63,4.63-4.63h21.59c2.55,0,4.63,2.07,4.63,4.63v21.59h0c0,2.55-2.07,4.63-4.63,4.63h-21.59c-2.55,0-4.63-2.07-4.63-4.63v-21.59Z"/><path class="cls-1" d="M154.19,138.77h30.84v30.84h-30.84v-30.84Z"/><path class="cls-1" d="M185.03,189.65h0c0-2.55,2.07-4.63,4.63-4.63h21.59c2.55,0,4.63,2.07,4.63,4.63v21.59h0c0,2.55-2.07,4.63-4.63,4.63h-21.59c-2.55,0-4.63-2.07-4.63-4.63v-21.59Z"/><path class="cls-1" d="M200.45,185.03h30.84v30.84h-30.84v-30.84Z"/></g></svg>