<?xml version="1.0" encoding="UTF-8"?><svg id="Layer_2" xmlns="http://www.w3.org/2000/svg" viewBox="0 0 256 227.56"><defs><style>.cls-1{fill:#53439b;}</style></defs><g id="Layer_1-2"><path class="cls-1" d="M170.67,4.27h0c0-2.36,1.91-4.27,4.27-4.27h19.91c2.36,0,4.27,1.91,4.27,4.27v19.91h0c0,2.36-1.91,4.27-4.27,4.27h-19.91c-2.36,0-4.27-1.91-4.27-4.27V4.27Z"/><path class="cls-1" d="M170.67,14.22h28.44v28.44h-28.44V14.22Z"/><path class="cls-1" d="M194.84,28.44h0c2.36,0,4.27,1.91,4.27,4.27l4.27-4.27h0c-2.36,0-4.27-1.91-4.27-4.27l-4.27,4.27Z"/><path class="cls-1" d="M174.93,28.44h0c-2.36,0-4.27,1.91-4.27,4.27l-4.27-4.27h0c2.36,0,4.27-1.91,4.27-4.27l4.27,4.27Z"/><path class="cls-1" d="M142.22,32.71h0c0-2.36,1.91-4.27,4.27-4.27h19.91c2.36,0,4.27,1.91,4.27,4.27v19.91h0c0,2.36-1.91,4.27-4.27,4.27h-19.91c-2.36,0-4.27-1.91-4.27-4.27v-19.91Z"/><path class="cls-1" d="M156.44,28.44h28.44v28.44h-28.44v-28.44Z"/><path class="cls-1" d="M142.22,42.67h28.44v28.44h-28.44v-28.44Z"/><path class="cls-1" d="M166.4,56.89h0c2.36,0,4.27,1.91,4.27,4.27l4.27-4.27h0c-2.36,0-4.27-1.91-4.27-4.27l-4.27,4.27Z"/><path class="cls-1" d="M146.49,56.89h0c-2.36,0-4.27,1.91-4.27,4.27l-4.27-4.27h0c2.36,0,4.27-1.91,4.27-4.27l4.27,4.27Z"/><path class="cls-1" d="M199.11,32.71h0c0-2.36,1.91-4.27,4.27-4.27h19.91c2.36,0,4.27,1.91,4.27,4.27v19.91h0c0,2.36-1.91,4.27-4.27,4.27h-19.91c-2.36,0-4.27-1.91-4.27-4.27v-19.91Z"/><path class="cls-1" d="M199.11,42.67h28.44v28.44h-28.44v-28.44Z"/><path class="cls-1" d="M223.29,56.89h0c2.36,0,4.27,1.91,4.27,4.27l4.27-4.27h0c-2.36,0-4.27-1.91-4.27-4.27l-4.27,4.27Z"/><path class="cls-1" d="M203.38,56.89h0c-2.36,0-4.27,1.91-4.27,4.27l-4.27-4.27h0c2.36,0,4.27-1.91,4.27-4.27l4.27,4.27Z"/><path class="cls-1" d="M113.78,61.16h0c0-2.36,1.91-4.27,4.27-4.27h19.91c2.36,0,4.27,1.91,4.27,4.27v19.91h0c0,2.36-1.91,4.27-4.27,4.27h-19.91c-2.36,0-4.27-1.91-4.27-4.27v-19.91Z"/><path class="cls-1" d="M128,56.89h28.44v28.44h-28.44v-28.44Z"/><path class="cls-1" d="M113.78,71.11h28.44v28.44h-28.44v-28.44Z"/><path class="cls-1" d="M137.96,85.33h0c2.36,0,4.27,1.91,4.27,4.27l4.27-4.27h0c-2.36,0-4.27-1.91-4.27-4.27l-4.27,4.27Z"/><path class="cls-1" d="M118.04,85.33h0c-2.36,0-4.27,1.91-4.27,4.27l-4.27-4.27h0c2.36,0,4.27-1.91,4.27-4.27l4.27,4.27Z"/><path class="cls-1" d="M85.33,32.71h0c0-2.36,1.91-4.27,4.27-4.27h19.91c2.36,0,4.27,1.91,4.27,4.27v19.91h0c0,2.36-1.91,4.27-4.27,4.27h-19.91c-2.36,0-4.27-1.91-4.27-4.27v-19.91Z"/><path class="cls-1" d="M85.33,42.67h28.44v28.44h-28.44v-28.44Z"/><path class="cls-1" d="M109.51,56.89h0c2.36,0,4.27,1.91,4.27,4.27l4.27-4.27h0c-2.36,0-4.27-1.91-4.27-4.27l-4.27,4.27Z"/><path class="cls-1" d="M89.6,56.89h0c-2.36,0-4.27,1.91-4.27,4.27l-4.27-4.27h0c2.36,0,4.27-1.91,4.27-4.27l4.27,4.27Z"/><path class="cls-1" d="M56.89,4.27h0c0-2.36,1.91-4.27,4.27-4.27h19.91c2.36,0,4.27,1.91,4.27,4.27v19.91h0c0,2.36-1.91,4.27-4.27,4.27h-19.91c-2.36,0-4.27-1.91-4.27-4.27V4.27Z"/><path class="cls-1" d="M56.89,14.22h28.44v28.44h-28.44V14.22Z"/><path class="cls-1" d="M81.07,28.44h0c2.36,0,4.27,1.91,4.27,4.27l4.27-4.27h0c-2.36,0-4.27-1.91-4.27-4.27l-4.27,4.27Z"/><path class="cls-1" d="M61.16,28.44h0c-2.36,0-4.27,1.91-4.27,4.27l-4.27-4.27h0c2.36,0,4.27-1.91,4.27-4.27l4.27,4.27Z"/><path class="cls-1" d="M28.44,32.71h0c0-2.36,1.91-4.27,4.27-4.27h19.91c2.36,0,4.27,1.91,4.27,4.27v19.91h0c0,2.36-1.91,4.27-4.27,4.27h-19.91c-2.36,0-4.27-1.91-4.27-4.27v-19.91Z"/><path class="cls-1" d="M42.67,28.44h28.44v28.44h-28.44v-28.44Z"/><path class="cls-1" d="M28.44,42.67h28.44v28.44h-28.44v-28.44Z"/><path class="cls-1" d="M52.62,56.89h0c2.36,0,4.27,1.91,4.27,4.27l4.27-4.27h0c-2.36,0-4.27-1.91-4.27-4.27l-4.27,4.27Z"/><path class="cls-1" d="M32.71,56.89h0c-2.36,0-4.27,1.91-4.27,4.27l-4.27-4.27h0c2.36,0,4.27-1.91,4.27-4.27l4.27,4.27Z"/><path class="cls-1" d="M0,61.16h0c0-2.36,1.91-4.27,4.27-4.27h19.91c2.36,0,4.27,1.91,4.27,4.27v19.91h0c0,2.36-1.91,4.27-4.27,4.27H4.27c-2.36,0-4.27-1.91-4.27-4.27v-19.91Z"/><path class="cls-1" d="M14.22,56.89h28.44v28.44H14.22v-28.44Z"/><path class="cls-1" d="M0,71.11h28.44v28.44H0v-28.44Z"/><path class="cls-1" d="M24.18,85.33h0c2.36,0,4.27,1.91,4.27,4.27l4.27-4.27h0c-2.36,0-4.27-1.91-4.27-4.27l-4.27,4.27Z"/><path class="cls-1" d="M227.56,61.16h0c0-2.36,1.91-4.27,4.27-4.27h19.91c2.36,0,4.27,1.91,4.27,4.27v19.91h0c0,2.36-1.91,4.27-4.27,4.27h-19.91c-2.36,0-4.27-1.91-4.27-4.27v-19.91Z"/><path class="cls-1" d="M227.56,71.11h28.44v28.44h-28.44v-28.44Z"/><path class="cls-1" d="M231.82,85.33h0c-2.36,0-4.27,1.91-4.27,4.27l-4.27-4.27h0c2.36,0,4.27-1.91,4.27-4.27l4.27,4.27Z"/><path class="cls-1" d="M0,89.6h0c0-2.36,1.91-4.27,4.27-4.27h19.91c2.36,0,4.27,1.91,4.27,4.27v19.91h0c0,2.36-1.91,4.27-4.27,4.27H4.27c-2.36,0-4.27-1.91-4.27-4.27v-19.91Z"/><path class="cls-1" d="M14.22,85.33h28.44v28.44H14.22v-28.44Z"/><path class="cls-1" d="M24.18,113.78h0c2.36,0,4.27,1.91,4.27,4.27l4.27-4.27h0c-2.36,0-4.27-1.91-4.27-4.27l-4.27,4.27Z"/><path class="cls-1" d="M227.56,89.6h0c0-2.36,1.91-4.27,4.27-4.27h19.91c2.36,0,4.27,1.91,4.27,4.27v19.91h0c0,2.36-1.91,4.27-4.27,4.27h-19.91c-2.36,0-4.27-1.91-4.27-4.27v-19.91Z"/><path class="cls-1" d="M231.82,113.78h0c-2.36,0-4.27,1.91-4.27,4.27l-4.27-4.27h0c2.36,0,4.27-1.91,4.27-4.27l4.27,4.27Z"/><path class="cls-1" d="M28.44,118.04h0c0-2.36,1.91-4.27,4.27-4.27h19.91c2.36,0,4.27,1.91,4.27,4.27v19.91h0c0,2.36-1.91,4.27-4.27,4.27h-19.91c-2.36,0-4.27-1.91-4.27-4.27v-19.91Z"/><path class="cls-1" d="M42.67,113.78h28.44v28.44h-28.44v-28.44Z"/><path class="cls-1" d="M52.62,142.22h0c2.36,0,4.27,1.91,4.27,4.27l4.27-4.27h0c-2.36,0-4.27-1.91-4.27-4.27l-4.27,4.27Z"/><path class="cls-1" d="M199.11,118.04h0c0-2.36,1.91-4.27,4.27-4.27h19.91c2.36,0,4.27,1.91,4.27,4.27v19.91h0c0,2.36-1.91,4.27-4.27,4.27h-19.91c-2.36,0-4.27-1.91-4.27-4.27v-19.91Z"/><path class="cls-1" d="M203.38,142.22h0c-2.36,0-4.27,1.91-4.27,4.27l-4.27-4.27h0c2.36,0,4.27-1.91,4.27-4.27l4.27,4.27Z"/><path class="cls-1" d="M56.89,146.49h0c0-2.36,1.91-4.27,4.27-4.27h19.91c2.36,0,4.27,1.91,4.27,4.27v19.91h0c0,2.36-1.91,4.27-4.27,4.27h-19.91c-2.36,0-4.27-1.91-4.27-4.27v-19.91Z"/><path class="cls-1" d="M71.11,142.22h28.44v28.44h-28.44v-28.44Z"/><path class="cls-1" d="M81.07,170.67h0c2.36,0,4.27,1.91,4.27,4.27l4.27-4.27h0c-2.36,0-4.27-1.91-4.27-4.27l-4.27,4.27Z"/><path class="cls-1" d="M85.33,174.93h0c0-2.36,1.91-4.27,4.27-4.27h19.91c2.36,0,4.27,1.91,4.27,4.27v19.91h0c0,2.36-1.91,4.27-4.27,4.27h-19.91c-2.36,0-4.27-1.91-4.27-4.27v-19.91Z"/><path class="cls-1" d="M99.56,170.67h28.44v28.44h-28.44v-28.44Z"/><path class="cls-1" d="M109.51,199.11h0c2.36,0,4.27,1.91,4.27,4.27l4.27-4.27h0c-2.36,0-4.27-1.91-4.27-4.27l-4.27,4.27Z"/><path class="cls-1" d="M113.78,203.38h0c0-2.36,1.91-4.27,4.27-4.27h19.91c2.36,0,4.27,1.91,4.27,4.27v19.91h0c0,2.36-1.91,4.27-4.27,4.27h-19.91c-2.36,0-4.27-1.91-4.27-4.27v-19.91Z"/><path class="cls-1" d="M142.22,174.93h0c0-2.36,1.91-4.27,4.27-4.27h19.91c2.36,0,4.27,1.91,4.27,4.27v19.91h0c0,2.36-1.91,4.27-4.27,4.27h-19.91c-2.36,0-4.27-1.91-4.27-4.27v-19.91Z"/><path class="cls-1" d="M146.49,199.11h0c-2.36,0-4.27,1.91-4.27,4.27l-4.27-4.27h0c2.36,0,4.27-1.91,4.27-4.27l4.27,4.27Z"/><path class="cls-1" d="M170.67,146.49h0c0-2.36,1.91-4.27,4.27-4.27h19.91c2.36,0,4.27,1.91,4.27,4.27v19.91h0c0,2.36-1.91,4.27-4.27,4.27h-19.91c-2.36,0-4.27-1.91-4.27-4.27v-19.91Z"/><path class="cls-1" d="M174.93,170.67h0c-2.36,0-4.27,1.91-4.27,4.27l-4.27-4.27h0c2.36,0,4.27-1.91,4.27-4.27l4.27,4.27Z"/><path class="cls-1" d="M28.44,61.16h0c0-2.36,1.91-4.27,4.27-4.27h19.91c2.36,0,4.27,1.91,4.27,4.27v19.91h0c0,2.36-1.91,4.27-4.27,4.27h-19.91c-2.36,0-4.27-1.91-4.27-4.27v-19.91Z"/><path class="cls-1" d="M42.67,56.89h28.44v28.44h-28.44v-28.44Z"/><path class="cls-1" d="M28.44,71.11h28.44v28.44h-28.44v-28.44Z"/><path class="cls-1" d="M52.62,85.33h0c2.36,0,4.27,1.91,4.27,4.27l4.27-4.27h0c-2.36,0-4.27-1.91-4.27-4.27l-4.27,4.27Z"/><path class="cls-1" d="M32.71,85.33h0c-2.36,0-4.27,1.91-4.27,4.27l-4.27-4.27h0c2.36,0,4.27-1.91,4.27-4.27l4.27,4.27Z"/><path class="cls-1" d="M28.44,89.6h0c0-2.36,1.91-4.27,4.27-4.27h19.91c2.36,0,4.27,1.91,4.27,4.27v19.91h0c0,2.36-1.91,4.27-4.27,4.27h-19.91c-2.36,0-4.27-1.91-4.27-4.27v-19.91Z"/><path class="cls-1" d="M42.67,85.33h28.44v28.44h-28.44v-28.44Z"/><path class="cls-1" d="M28.44,99.56h28.44v28.44h-28.44v-28.44Z"/><path class="cls-1" d="M52.62,113.78h0c2.36,0,4.27,1.91,4.27,4.27l4.27-4.27h0c-2.36,0-4.27-1.91-4.27-4.27l-4.27,4.27Z"/><path class="cls-1" d="M56.89,89.6h0c0-2.36,1.91-4.27,4.27-4.27h19.91c2.36,0,4.27,1.91,4.27,4.27v19.91h0c0,2.36-1.91,4.27-4.27,4.27h-19.91c-2.36,0-4.27-1.91-4.27-4.27v-19.91Z"/><path class="cls-1" d="M71.11,85.33h28.44v28.44h-28.44v-28.44Z"/><path class="cls-1" d="M56.89,99.56h28.44v28.44h-28.44v-28.44Z"/><path class="cls-1" d="M81.07,113.78h0c2.36,0,4.27,1.91,4.27,4.27l4.27-4.27h0c-2.36,0-4.27-1.91-4.27-4.27l-4.27,4.27Z"/><path class="cls-1" d="M61.16,113.78h0c-2.36,0-4.27,1.91-4.27,4.27l-4.27-4.27h0c2.36,0,4.27-1.91,4.27-4.27l4.27,4.27Z"/><path class="cls-1" d="M56.89,61.16h0c0-2.36,1.91-4.27,4.27-4.27h19.91c2.36,0,4.27,1.91,4.27,4.27v19.91h0c0,2.36-1.91,4.27-4.27,4.27h-19.91c-2.36,0-4.27-1.91-4.27-4.27v-19.91Z"/><path class="cls-1" d="M71.11,56.89h28.44v28.44h-28.44v-28.44Z"/><path class="cls-1" d="M56.89,71.11h28.44v28.44h-28.44v-28.44Z"/><path class="cls-1" d="M81.07,85.33h0c2.36,0,4.27,1.91,4.27,4.27l4.27-4.27h0c-2.36,0-4.27-1.91-4.27-4.27l-4.27,4.27Z"/><path class="cls-1" d="M61.16,85.33h0c-2.36,0-4.27,1.91-4.27,4.27l-4.27-4.27h0c2.36,0,4.27-1.91,4.27-4.27l4.27,4.27Z"/><path class="cls-1" d="M56.89,32.71h0c0-2.36,1.91-4.27,4.27-4.27h19.91c2.36,0,4.27,1.91,4.27,4.27v19.91h0c0,2.36-1.91,4.27-4.27,4.27h-19.91c-2.36,0-4.27-1.91-4.27-4.27v-19.91Z"/><path class="cls-1" d="M71.11,28.44h28.44v28.44h-28.44v-28.44Z"/><path class="cls-1" d="M56.89,42.67h28.44v28.44h-28.44v-28.44Z"/><path class="cls-1" d="M81.07,56.89h0c2.36,0,4.27,1.91,4.27,4.27l4.27-4.27h0c-2.36,0-4.27-1.91-4.27-4.27l-4.27,4.27Z"/><path class="cls-1" d="M61.16,56.89h0c-2.36,0-4.27,1.91-4.27,4.27l-4.27-4.27h0c2.36,0,4.27-1.91,4.27-4.27l4.27,4.27Z"/><path class="cls-1" d="M56.89,118.04h0c0-2.36,1.91-4.27,4.27-4.27h19.91c2.36,0,4.27,1.91,4.27,4.27v19.91h0c0,2.36-1.91,4.27-4.27,4.27h-19.91c-2.36,0-4.27-1.91-4.27-4.27v-19.91Z"/><path class="cls-1" d="M71.11,113.78h28.44v28.44h-28.44v-28.44Z"/><path class="cls-1" d="M56.89,128h28.44v28.44h-28.44v-28.44Z"/><path class="cls-1" d="M81.07,142.22h0c2.36,0,4.27,1.91,4.27,4.27l4.27-4.27h0c-2.36,0-4.27-1.91-4.27-4.27l-4.27,4.27Z"/><path class="cls-1" d="M85.33,118.04h0c0-2.36,1.91-4.27,4.27-4.27h19.91c2.36,0,4.27,1.91,4.27,4.27v19.91h0c0,2.36-1.91,4.27-4.27,4.27h-19.91c-2.36,0-4.27-1.91-4.27-4.27v-19.91Z"/><path class="cls-1" d="M99.56,113.78h28.44v28.44h-28.44v-28.44Z"/><path class="cls-1" d="M85.33,128h28.44v28.44h-28.44v-28.44Z"/><path class="cls-1" d="M109.51,142.22h0c2.36,0,4.27,1.91,4.27,4.27l4.27-4.27h0c-2.36,0-4.27-1.91-4.27-4.27l-4.27,4.27Z"/><path class="cls-1" d="M89.6,142.22h0c-2.36,0-4.27,1.91-4.27,4.27l-4.27-4.27h0c2.36,0,4.27-1.91,4.27-4.27l4.27,4.27Z"/><path class="cls-1" d="M85.33,89.6h0c0-2.36,1.91-4.27,4.27-4.27h19.91c2.36,0,4.27,1.91,4.27,4.27v19.91h0c0,2.36-1.91,4.27-4.27,4.27h-19.91c-2.36,0-4.27-1.91-4.27-4.27v-19.91Z"/><path class="cls-1" d="M99.56,85.33h28.44v28.44h-28.44v-28.44Z"/><path class="cls-1" d="M85.33,99.56h28.44v28.44h-28.44v-28.44Z"/><path class="cls-1" d="M109.51,113.78h0c2.36,0,4.27,1.91,4.27,4.27l4.27-4.27h0c-2.36,0-4.27-1.91-4.27-4.27l-4.27,4.27Z"/><path class="cls-1" d="M89.6,113.78h0c-2.36,0-4.27,1.91-4.27,4.27l-4.27-4.27h0c2.36,0,4.27-1.91,4.27-4.27l4.27,4.27Z"/><path class="cls-1" d="M85.33,61.16h0c0-2.36,1.91-4.27,4.27-4.27h19.91c2.36,0,4.27,1.91,4.27,4.27v19.91h0c0,2.36-1.91,4.27-4.27,4.27h-19.91c-2.36,0-4.27-1.91-4.27-4.27v-19.91Z"/><path class="cls-1" d="M99.56,56.89h28.44v28.44h-28.44v-28.44Z"/><path class="cls-1" d="M85.33,71.11h28.44v28.44h-28.44v-28.44Z"/><path class="cls-1" d="M109.51,85.33h0c2.36,0,4.27,1.91,4.27,4.27l4.27-4.27h0c-2.36,0-4.27-1.91-4.27-4.27l-4.27,4.27Z"/><path class="cls-1" d="M89.6,85.33h0c-2.36,0-4.27,1.91-4.27,4.27l-4.27-4.27h0c2.36,0,4.27-1.91,4.27-4.27l4.27,4.27Z"/><path class="cls-1" d="M85.33,146.49h0c0-2.36,1.91-4.27,4.27-4.27h19.91c2.36,0,4.27,1.91,4.27,4.27v19.91h0c0,2.36-1.91,4.27-4.27,4.27h-19.91c-2.36,0-4.27-1.91-4.27-4.27v-19.91Z"/><path class="cls-1" d="M99.56,142.22h28.44v28.44h-28.44v-28.44Z"/><path class="cls-1" d="M85.33,156.44h28.44v28.44h-28.44v-28.44Z"/><path class="cls-1" d="M109.51,170.67h0c2.36,0,4.27,1.91,4.27,4.27l4.27-4.27h0c-2.36,0-4.27-1.91-4.27-4.27l-4.27,4.27Z"/><path class="cls-1" d="M113.78,174.93h0c0-2.36,1.91-4.27,4.27-4.27h19.91c2.36,0,4.27,1.91,4.27,4.27v19.91h0c0,2.36-1.91,4.27-4.27,4.27h-19.91c-2.36,0-4.27-1.91-4.27-4.27v-19.91Z"/><path class="cls-1" d="M128,170.67h28.44v28.44h-28.44v-28.44Z"/><path class="cls-1" d="M113.78,184.89h28.44v28.44h-28.44v-28.44Z"/><path class="cls-1" d="M113.78,146.49h0c0-2.36,1.91-4.27,4.27-4.27h19.91c2.36,0,4.27,1.91,4.27,4.27v19.91h0c0,2.36-1.91,4.27-4.27,4.27h-19.91c-2.36,0-4.27-1.91-4.27-4.27v-19.91Z"/><path class="cls-1" d="M128,142.22h28.44v28.44h-28.44v-28.44Z"/><path class="cls-1" d="M113.78,156.44h28.44v28.44h-28.44v-28.44Z"/><path class="cls-1" d="M137.96,170.67h0c2.36,0,4.27,1.91,4.27,4.27l4.27-4.27h0c-2.36,0-4.27-1.91-4.27-4.27l-4.27,4.27Z"/><path class="cls-1" d="M118.04,170.67h0c-2.36,0-4.27,1.91-4.27,4.27l-4.27-4.27h0c2.36,0,4.27-1.91,4.27-4.27l4.27,4.27Z"/><path class="cls-1" d="M113.78,118.04h0c0-2.36,1.91-4.27,4.27-4.27h19.91c2.36,0,4.27,1.91,4.27,4.27v19.91h0c0,2.36-1.91,4.27-4.27,4.27h-19.91c-2.36,0-4.27-1.91-4.27-4.27v-19.91Z"/><path class="cls-1" d="M128,113.78h28.44v28.44h-28.44v-28.44Z"/><path class="cls-1" d="M113.78,128h28.44v28.44h-28.44v-28.44Z"/><path class="cls-1" d="M137.96,142.22h0c2.36,0,4.27,1.91,4.27,4.27l4.27-4.27h0c-2.36,0-4.27-1.91-4.27-4.27l-4.27,4.27Z"/><path class="cls-1" d="M118.04,142.22h0c-2.36,0-4.27,1.91-4.27,4.27l-4.27-4.27h0c2.36,0,4.27-1.91,4.27-4.27l4.27,4.27Z"/><path class="cls-1" d="M113.78,89.6h0c0-2.36,1.91-4.27,4.27-4.27h19.91c2.36,0,4.27,1.91,4.27,4.27v19.91h0c0,2.36-1.91,4.27-4.27,4.27h-19.91c-2.36,0-4.27-1.91-4.27-4.27v-19.91Z"/><path class="cls-1" d="M128,85.33h28.44v28.44h-28.44v-28.44Z"/><path class="cls-1" d="M113.78,99.56h28.44v28.44h-28.44v-28.44Z"/><path class="cls-1" d="M137.96,113.78h0c2.36,0,4.27,1.91,4.27,4.27l4.27-4.27h0c-2.36,0-4.27-1.91-4.27-4.27l-4.27,4.27Z"/><path class="cls-1" d="M118.04,113.78h0c-2.36,0-4.27,1.91-4.27,4.27l-4.27-4.27h0c2.36,0,4.27-1.91,4.27-4.27l4.27,4.27Z"/><path class="cls-1" d="M142.22,89.6h0c0-2.36,1.91-4.27,4.27-4.27h19.91c2.36,0,4.27,1.91,4.27,4.27v19.91h0c0,2.36-1.91,4.27-4.27,4.27h-19.91c-2.36,0-4.27-1.91-4.27-4.27v-19.91Z"/><path class="cls-1" d="M156.44,85.33h28.44v28.44h-28.44v-28.44Z"/><path class="cls-1" d="M142.22,99.56h28.44v28.44h-28.44v-28.44Z"/><path class="cls-1" d="M166.4,113.78h0c2.36,0,4.27,1.91,4.27,4.27l4.27-4.27h0c-2.36,0-4.27-1.91-4.27-4.27l-4.27,4.27Z"/><path class="cls-1" d="M146.49,113.78h0c-2.36,0-4.27,1.91-4.27,4.27l-4.27-4.27h0c2.36,0,4.27-1.91,4.27-4.27l4.27,4.27Z"/><path class="cls-1" d="M142.22,118.04h0c0-2.36,1.91-4.27,4.27-4.27h19.91c2.36,0,4.27,1.91,4.27,4.27v19.91h0c0,2.36-1.91,4.27-4.27,4.27h-19.91c-2.36,0-4.27-1.91-4.27-4.27v-19.91Z"/><path class="cls-1" d="M156.44,113.78h28.44v28.44h-28.44v-28.44Z"/><path class="cls-1" d="M142.22,128h28.44v28.44h-28.44v-28.44Z"/><path class="cls-1" d="M166.4,142.22h0c2.36,0,4.27,1.91,4.27,4.27l4.27-4.27h0c-2.36,0-4.27-1.91-4.27-4.27l-4.27,4.27Z"/><path class="cls-1" d="M146.49,142.22h0c-2.36,0-4.27,1.91-4.27,4.27l-4.27-4.27h0c2.36,0,4.27-1.91,4.27-4.27l4.27,4.27Z"/><path class="cls-1" d="M142.22,146.49h0c0-2.36,1.91-4.27,4.27-4.27h19.91c2.36,0,4.27,1.91,4.27,4.27v19.91h0c0,2.36-1.91,4.27-4.27,4.27h-19.91c-2.36,0-4.27-1.91-4.27-4.27v-19.91Z"/><path class="cls-1" d="M156.44,142.22h28.44v28.44h-28.44v-28.44Z"/><path class="cls-1" d="M142.22,156.44h28.44v28.44h-28.44v-28.44Z"/><path class="cls-1" d="M146.49,170.67h0c-2.36,0-4.27,1.91-4.27,4.27l-4.27-4.27h0c2.36,0,4.27-1.91,4.27-4.27l4.27,4.27Z"/><path class="cls-1" d="M142.22,61.16h0c0-2.36,1.91-4.27,4.27-4.27h19.91c2.36,0,4.27,1.91,4.27,4.27v19.91h0c0,2.36-1.91,4.27-4.27,4.27h-19.91c-2.36,0-4.27-1.91-4.27-4.27v-19.91Z"/><path class="cls-1" d="M156.44,56.89h28.44v28.44h-28.44v-28.44Z"/><path class="cls-1" d="M142.22,71.11h28.44v28.44h-28.44v-28.44Z"/><path class="cls-1" d="M166.4,85.33h0c2.36,0,4.27,1.91,4.27,4.27l4.27-4.27h0c-2.36,0-4.27-1.91-4.27-4.27l-4.27,4.27Z"/><path class="cls-1" d="M146.49,85.33h0c-2.36,0-4.27,1.91-4.27,4.27l-4.27-4.27h0c2.36,0,4.27-1.91,4.27-4.27l4.27,4.27Z"/><path class="cls-1" d="M170.67,32.71h0c0-2.36,1.91-4.27,4.27-4.27h19.91c2.36,0,4.27,1.91,4.27,4.27v19.91h0c0,2.36-1.91,4.27-4.27,4.27h-19.91c-2.36,0-4.27-1.91-4.27-4.27v-19.91Z"/><path class="cls-1" d="M184.89,28.44h28.44v28.44h-28.44v-28.44Z"/><path class="cls-1" d="M170.67,42.67h28.44v28.44h-28.44v-28.44Z"/><path class="cls-1" d="M194.84,56.89h0c2.36,0,4.27,1.91,4.27,4.27l4.27-4.27h0c-2.36,0-4.27-1.91-4.27-4.27l-4.27,4.27Z"/><path class="cls-1" d="M174.93,56.89h0c-2.36,0-4.27,1.91-4.27,4.27l-4.27-4.27h0c2.36,0,4.27-1.91,4.27-4.27l4.27,4.27Z"/><path class="cls-1" d="M170.67,61.16h0c0-2.36,1.91-4.27,4.27-4.27h19.91c2.36,0,4.27,1.91,4.27,4.27v19.91h0c0,2.36-1.91,4.27-4.27,4.27h-19.91c-2.36,0-4.27-1.91-4.27-4.27v-19.91Z"/><path class="cls-1" d="M184.89,56.89h28.44v28.44h-28.44v-28.44Z"/><path class="cls-1" d="M170.67,71.11h28.44v28.44h-28.44v-28.44Z"/><path class="cls-1" d="M194.84,85.33h0c2.36,0,4.27,1.91,4.27,4.27l4.27-4.27h0c-2.36,0-4.27-1.91-4.27-4.27l-4.27,4.27Z"/><path class="cls-1" d="M174.93,85.33h0c-2.36,0-4.27,1.91-4.27,4.27l-4.27-4.27h0c2.36,0,4.27-1.91,4.27-4.27l4.27,4.27Z"/><path class="cls-1" d="M170.67,89.6h0c0-2.36,1.91-4.27,4.27-4.27h19.91c2.36,0,4.27,1.91,4.27,4.27v19.91h0c0,2.36-1.91,4.27-4.27,4.27h-19.91c-2.36,0-4.27-1.91-4.27-4.27v-19.91Z"/><path class="cls-1" d="M184.89,85.33h28.44v28.44h-28.44v-28.44Z"/><path class="cls-1" d="M170.67,99.56h28.44v28.44h-28.44v-28.44Z"/><path class="cls-1" d="M194.84,113.78h0c2.36,0,4.27,1.91,4.27,4.27l4.27-4.27h0c-2.36,0-4.27-1.91-4.27-4.27l-4.27,4.27Z"/><path class="cls-1" d="M174.93,113.78h0c-2.36,0-4.27,1.91-4.27,4.27l-4.27-4.27h0c2.36,0,4.27-1.91,4.27-4.27l4.27,4.27Z"/><path class="cls-1" d="M170.67,118.04h0c0-2.36,1.91-4.27,4.27-4.27h19.91c2.36,0,4.27,1.91,4.27,4.27v19.91h0c0,2.36-1.91,4.27-4.27,4.27h-19.91c-2.36,0-4.27-1.91-4.27-4.27v-19.91Z"/><path class="cls-1" d="M184.89,113.78h28.44v28.44h-28.44v-28.44Z"/><path class="cls-1" d="M170.67,128h28.44v28.44h-28.44v-28.44Z"/><path class="cls-1" d="M174.93,142.22h0c-2.36,0-4.27,1.91-4.27,4.27l-4.27-4.27h0c2.36,0,4.27-1.91,4.27-4.27l4.27,4.27Z"/><path class="cls-1" d="M199.11,89.6h0c0-2.36,1.91-4.27,4.27-4.27h19.91c2.36,0,4.27,1.91,4.27,4.27v19.91h0c0,2.36-1.91,4.27-4.27,4.27h-19.91c-2.36,0-4.27-1.91-4.27-4.27v-19.91Z"/><path class="cls-1" d="M213.33,85.33h28.44v28.44h-28.44v-28.44Z"/><path class="cls-1" d="M199.11,99.56h28.44v28.44h-28.44v-28.44Z"/><path class="cls-1" d="M203.38,113.78h0c-2.36,0-4.27,1.91-4.27,4.27l-4.27-4.27h0c2.36,0,4.27-1.91,4.27-4.27l4.27,4.27Z"/><path class="cls-1" d="M199.11,61.16h0c0-2.36,1.91-4.27,4.27-4.27h19.91c2.36,0,4.27,1.91,4.27,4.27v19.91h0c0,2.36-1.91,4.27-4.27,4.27h-19.91c-2.36,0-4.27-1.91-4.27-4.27v-19.91Z"/><path class="cls-1" d="M213.33,56.89h28.44v28.44h-28.44v-28.44Z"/><path class="cls-1" d="M199.11,71.11h28.44v28.44h-28.44v-28.44Z"/><path class="cls-1" d="M223.29,85.33h0c2.36,0,4.27,1.91,4.27,4.27l4.27-4.27h0c-2.36,0-4.27-1.91-4.27-4.27l-4.27,4.27Z"/><path class="cls-1" d="M203.38,85.33h0c-2.36,0-4.27,1.91-4.27,4.27l-4.27-4.27h0c2.36,0,4.27-1.91,4.27-4.27l4.27,4.27Z"/></g></svg>