<?xml version="1.0" encoding="UTF-8"?><svg id="Layer_2" xmlns="http://www.w3.org/2000/svg" viewBox="0 0 223.83 248.85"><defs><style>.cls-1{fill:#53439b;}</style></defs><g id="Layer_1-2"><path class="cls-1" d="M149.18,199.08c41.06,0,74.65-33.59,74.65-74.65v-37.33s-24.88,0-24.88,0v37.33c0,27.37-22.4,49.77-49.77,49.77h-49.77c-27.37,0-49.77-22.4-49.77-49.77v-37.33s-24.88,0-24.88,0v37.33c0,41.06,33.59,74.65,74.65,74.65h12.44s0,24.88,0,24.88H38.44s0,24.88,0,24.88h171.7s0-24.88,0-24.88h-73.41s0-24.88,0-24.88h12.44Z"/><path class="cls-1" d="M99.41,149.31h49.77c13.69,0,24.88-11.2,24.88-24.88V24.88C174.06,11.2,162.86,0,149.18,0h-49.77c-13.69,0-24.88,11.2-24.88,24.88v99.54c0,13.69,11.2,24.88,24.88,24.88ZM99.41,24.88h49.77s0,99.54,0,99.54h-49.77s0-99.54,0-99.54Z"/><path class="cls-1" d="M24.77,69.8v-17.75c0-1.97-1.59-3.57-3.56-3.56-4.71.02-12.98.05-17.68.07C1.57,48.57,0,50.16,0,52.13v17.72c0,1.96,1.58,3.56,3.54,3.56,4.7,0,12.95,0,17.65,0,1.97,0,3.54,1.59,3.54,3.56v17.68c0,1.96,1.58,3.56,3.55,3.56,4.71,0,12.97,0,17.68,0,1.97,0,3.54-1.59,3.54-3.56v-17.78c0-1.97-1.6-3.57-3.57-3.56l-17.6.06c-1.97,0-3.57-1.59-3.57-3.56"/></g></svg>