<?xml version="1.0" encoding="UTF-8"?><svg id="Layer_2" xmlns="http://www.w3.org/2000/svg" viewBox="0 0 240 226.23"><defs><style>.cls-1{fill:#53439b;}</style></defs><g id="Layer_1-2"><rect class="cls-1" x="217.47" y="179.52" width="19.54" height="19.54" rx="2.57" ry="2.57" transform="translate(200.41 -105.24) rotate(45)"/><path class="cls-1" d="M210.59,194.56l-.7-10.08c.17.24,1.67,2.25,4.17,2.27,1.32,0,2.29-.54,2.74-.83.16,2.36.31,4.72.47,7.08-.5-.21-1.74-.64-3.29-.36-1.91.34-3.05,1.54-3.38,1.92Z"/><path class="cls-1" d="M174.72,199.28l24.99-25.07,15.66,15.66-32.73,33.09c-1.44,1.44-3.16,2.41-4.98,2.88-3.73,1.01-7.88.06-10.8-2.86l-44.13-44.01-25.52,37.41c-2.35,3.42-6.38,5.27-10.53,4.8-4.13-.49-7.62-3.2-9.13-7.07L.74,15.19C-.84,11.08.15,6.42,3.25,3.28,6.37.16,11.03-.83,15.16.73l51.08,19.59c5.75,2.19,8.65,8.65,6.44,14.42-2.21,5.77-8.65,8.65-14.42,6.44l-27.63-10.57,60.11,155.59,21.1-30.93c1.88-2.75,4.9-4.5,8.2-4.84,3.3-.3,6.58.89,8.93,3.24l45.77,45.61Z"/><path class="cls-1" d="M221.37,86.14c.49,4.13-1.34,8.18-4.76,10.53l-37.35,25.62,36.11,36.26-15.66,15.66-45.75-45.63c-2.35-2.35-3.54-5.63-3.24-8.93.32-3.32,2.07-6.3,4.82-8.22l30.83-21.15-86.16-32.75c-5.77-2.21-8.65-8.65-6.48-14.42,2.21-5.77,8.67-8.67,14.42-6.48l106.11,40.37c3.87,1.46,6.62,5,7.11,9.13Z"/></g></svg>