<?xml version="1.0" encoding="UTF-8"?><svg id="Layer_2" xmlns="http://www.w3.org/2000/svg" viewBox="0 0 310.66 181.18"><defs><style>.cls-1{fill:#53439b;}</style></defs><g id="Layer_1-2"><path class="cls-1" d="M285.35,155.11V29.69c0-2.06-1.67-3.73-3.73-3.73h-18.54c-2.06,0-3.73-1.67-3.73-3.73V3.73c0-2.06-1.67-3.73-3.73-3.73H54.66c-2.06,0-3.73,1.67-3.73,3.73v18.57c0,2.06-1.67,3.73-3.73,3.73h-18.59c-2.06,0-3.73,1.67-3.73,3.73v125.36H3.73c-2.06,0-3.73,1.67-3.73,3.73v18.63c0,2.06,1.67,3.73,3.73,3.73h303.21c2.06,0,3.73-1.67,3.73-3.73v-18.63c0-2.06-1.67-3.73-3.73-3.73h-21.58ZM259.27,155.11H50.97V29.8c0-2.06,1.67-3.73,3.73-3.73h200.85c2.06,0,3.73,1.67,3.73,3.73v125.3Z"/><path class="cls-1" d="M210.81,103.97h18.47c2.06,0,3.73-1.67,3.73-3.73v-18.63c0-2.06-1.67-3.73-3.73-3.73h-18.38c-2.06,0-3.73-1.67-3.73-3.73v-18.55c0-2.06-1.66-3.73-3.72-3.73h-122.05c-2.06,0-3.73,1.67-3.73,3.73v18.63c0,2.06,1.67,3.73,3.73,3.73h121.95c2.06,0,3.73,1.67,3.73,3.73v18.55c0,2.06,1.67,3.73,3.73,3.73"/><path class="cls-1" d="M81.73,129.82h69.87c2.06,0,3.73-1.67,3.73-3.73v-18.63c0-2.06-1.67-3.73-3.73-3.73h-69.87c-2.06,0-3.73,1.67-3.73,3.73v18.63c0,2.06,1.67,3.73,3.73,3.73"/></g></svg>