<?xml version="1.0" encoding="UTF-8"?><svg id="Layer_2" xmlns="http://www.w3.org/2000/svg" viewBox="0 0 256 192.1"><defs><style>.cls-1{fill:#53439b;}</style></defs><g id="Layer_1-2"><path class="cls-1" d="M82.11,63.9h-15.2c-1.69,0-3.07,1.37-3.07,3.07v15.19c0,1.69-1.37,3.07-3.07,3.07h-15.19c-1.69,0-3.07,1.37-3.07,3.07v15.21c0,1.69,1.37,3.07,3.07,3.07h15.19c1.7,0,3.07,1.37,3.07,3.07v15.18c0,1.69,1.37,3.07,3.07,3.07h15.2c1.69,0,3.07,1.37,3.07,3.07v15.2c0,1.69,1.37,3.07,3.07,3.07h15.21c1.69,0,3.07-1.37,3.07-3.07v-15.21c0-1.69-1.38-3.07-3.07-3.07h-15.2c-1.69,0-3.07-1.37-3.07-3.07v-15.2c0-1.69-1.37-3.07-3.07-3.07h-15.19c-1.69,0-3.07-1.37-3.07-3.07v-15.16c0-1.7,1.37-3.07,3.07-3.07h15.19c1.69,0,3.07-1.37,3.07-3.07v-15.2c0-1.69,1.37-3.07,3.07-3.07h15.2c1.69,0,3.07-1.37,3.07-3.07v-15.21c0-1.7-1.38-3.07-3.07-3.07h-15.21c-1.69,0-3.07,1.37-3.07,3.07v15.19c0,1.69-1.38,3.07-3.07,3.07"/><path class="cls-1" d="M167.26,44.25l-49.6,100.59c-1.01,2.04.48,4.43,2.75,4.43h16.99c1.17,0,2.24-.67,2.75-1.71l49.6-100.59c1.01-2.04-.48-4.43-2.75-4.43h-17c-1.17,0-2.24.66-2.75,1.71"/><path class="cls-1" d="M162.31,149.3h47.87c1.69,0,3.07-1.37,3.07-3.07v-15.21c0-1.69-1.38-3.07-3.07-3.07h-47.87c-1.69,0-3.07,1.37-3.07,3.07v15.21c0,1.69,1.37,3.07,3.07,3.07"/><path class="cls-1" d="M252.93,21.23h-15.02c-1.69,0-3.07-1.37-3.07-3.07V3.07c0-1.69-1.37-3.07-3.07-3.07H24.21c-1.7,0-3.07,1.37-3.07,3.07v15.09c0,1.69-1.38,3.07-3.07,3.07H3.07c-1.7,0-3.07,1.37-3.07,3.07v143.51c0,1.69,1.37,3.07,3.07,3.07h15.01c1.69,0,3.07,1.37,3.07,3.07v15.09c0,1.69,1.37,3.07,3.07,3.07h207.57c1.7,0,3.07-1.37,3.07-3.07v-15.09c0-1.7,1.37-3.07,3.07-3.07h15.02c1.69,0,3.07-1.37,3.07-3.07V24.3c0-1.69-1.37-3.07-3.07-3.07M234.53,24.54v143.02c0,1.69-1.38,3.07-3.07,3.07H24.54c-1.7,0-3.07-1.37-3.07-3.07V24.54c0-1.69,1.37-3.07,3.07-3.07h206.92c1.69,0,3.07,1.37,3.07,3.07"/></g></svg>