<?xml version="1.0" encoding="UTF-8"?><svg id="Layer_2" xmlns="http://www.w3.org/2000/svg" viewBox="0 0 208.12 320"><defs><style>.cls-1{fill:#53439b;}</style></defs><g id="Layer_1-2"><path class="cls-1" d="M173.44,26.49C151.42,6.78,121.82-2.65,92.21.65,44.66,5.93,6.18,44.26.71,91.8c-3.87,33.72,8.2,66.14,33.12,88.93,9.26,8.47,14.35,19.48,14.35,31.09l.22,39.8c.01,2.53,2.07,4.57,4.6,4.57h70.06c2.54,0,4.59,2.06,4.59,4.59v22.46c0,2.54-2.06,4.59-4.59,4.59H53.88c-2.53,0-4.6,2.05-4.6,4.59v22.97c0,2.54,2.06,4.59,4.6,4.59h69.38c2.54,0,4.59-2.06,4.59-4.59v-22.69c0-2.54,2.05-4.59,4.6-4.59h22.89c2.54,0,4.59-2.06,4.59-4.59v-22.97c0-2.54-2.06-4.59-4.59-4.59h-22.89c-2.54,0-4.6-2.06-4.6-4.59v-22.71c0-2.54,2.05-4.59,4.6-4.59h22.95c2.55,0,4.61-2.07,4.59-4.62l-.04-7.71c0-11.53,5.09-22.54,14.35-31,21.5-19.66,33.82-47.61,33.82-76.69s-12.64-57.83-34.67-77.55M152.59,157c-15.77,14.42-24.8,34.37-24.8,54.82l.04,7.59c.01,2.55-2.04,4.62-4.59,4.62h-38.24c-2.53,0-4.58-2.04-4.59-4.57l-.05-7.73c0-20.37-9.04-40.31-24.81-54.73-16.86-15.41-25.2-37.23-23.03-60.04,3.18-33.5,29.82-60.64,63.26-64.35,20.81-2.31,40.79,4.03,56.23,17.85,15.23,13.63,23.96,33.16,23.96,53.59s-8.52,39.37-23.37,52.95"/></g></svg>